<svg width="8" height="12" viewBox="0 0 8 12" fill="none" xmlns="http://www.w3.org/2000/svg">
<path d="M7.24509 5.96161C7.24601 6.12041 7.21557 6.27784 7.15552 6.42486C7.09546 6.57188 7.00698 6.7056 6.89515 6.81836L2.06838 11.6451C1.84116 11.8723 1.53297 12 1.21163 12C0.890285 12 0.582102 11.8723 0.354877 11.6451C0.127653 11.4179 -3.89156e-08 11.1097 -5.2962e-08 10.7884C-6.70084e-08 10.467 0.127653 10.1588 0.354877 9.93162L4.33696 5.96161L0.366944 1.99159C0.169256 1.76075 0.0659555 1.46381 0.077686 1.16012C0.0894164 0.856422 0.215314 0.568337 0.430219 0.353432C0.645124 0.138527 0.933209 0.0126314 1.2369 0.000901168C1.5406 -0.010829 1.83754 0.0924691 2.06838 0.290157L6.89515 5.11692C7.11808 5.34168 7.24375 5.64504 7.24509 5.96161Z" fill="#3DB845"/>
</svg>
