<svg width="36" height="36" viewBox="0 0 36 36" fill="none" xmlns="http://www.w3.org/2000/svg">
<path d="M3.74962 13.2899L17.2496 21.0899C17.4776 21.2216 17.7363 21.2909 17.9996 21.2909C18.2629 21.2909 18.5216 21.2216 18.7496 21.0899L32.2496 13.2899C32.4763 13.1591 32.6648 12.9711 32.7964 12.7448C32.928 12.5185 32.998 12.2617 32.9996 11.9999C33.0007 11.7356 32.9319 11.4757 32.8002 11.2466C32.6684 11.0174 32.4785 10.8271 32.2496 10.6949L18.7496 2.90995C18.5216 2.77829 18.2629 2.70898 17.9996 2.70898C17.7363 2.70898 17.4776 2.77829 17.2496 2.90995L3.74962 10.6949C3.52071 10.8271 3.33079 11.0174 3.19909 11.2466C3.06738 11.4757 2.99857 11.7356 2.99962 11.9999C3.0012 12.2617 3.07126 12.5185 3.20283 12.7448C3.3344 12.9711 3.52291 13.1591 3.74962 13.2899ZM17.9996 5.99995L28.4996 11.9999L17.9996 17.9999L7.49962 11.9999L17.9996 5.99995ZM30.7496 16.7549L17.9996 23.9999L5.24962 16.6949C5.07842 16.5958 4.88929 16.5314 4.69312 16.5057C4.49695 16.4799 4.29762 16.4932 4.10661 16.5448C3.9156 16.5963 3.73669 16.6852 3.58016 16.8062C3.42364 16.9273 3.29261 17.0781 3.19462 17.2499C2.99906 17.5944 2.94766 18.0022 3.05164 18.3843C3.15561 18.7665 3.40652 19.0921 3.74962 19.2899L17.2496 27.0899C17.4776 27.2216 17.7363 27.2909 17.9996 27.2909C18.2629 27.2909 18.5216 27.2216 18.7496 27.0899L32.2496 19.2899C32.5927 19.0921 32.8436 18.7665 32.9476 18.3843C33.0516 18.0022 33.0002 17.5944 32.8046 17.2499C32.7066 17.0781 32.5756 16.9273 32.4191 16.8062C32.2626 16.6852 32.0836 16.5963 31.8926 16.5448C31.7016 16.4932 31.5023 16.4799 31.3061 16.5057C31.1099 16.5314 30.9208 16.5958 30.7496 16.6949V16.7549ZM30.7496 22.7549L17.9996 29.9999L5.24962 22.6949C5.07842 22.5958 4.88929 22.5314 4.69312 22.5057C4.49695 22.4799 4.29762 22.4932 4.10661 22.5448C3.9156 22.5963 3.73669 22.6852 3.58016 22.8062C3.42364 22.9273 3.29261 23.0781 3.19462 23.2499C2.99906 23.5944 2.94766 24.0022 3.05164 24.3843C3.15561 24.7665 3.40652 25.0921 3.74962 25.2899L17.2496 33.0899C17.4776 33.2216 17.7363 33.2909 17.9996 33.2909C18.2629 33.2909 18.5216 33.2216 18.7496 33.0899L32.2496 25.2899C32.5927 25.0921 32.8436 24.7665 32.9476 24.3843C33.0516 24.0022 33.0002 23.5944 32.8046 23.2499C32.7066 23.0781 32.5756 22.9273 32.4191 22.8062C32.2626 22.6852 32.0836 22.5963 31.8926 22.5448C31.7016 22.4932 31.5023 22.4799 31.3061 22.5057C31.1099 22.5314 30.9208 22.5958 30.7496 22.6949V22.7549Z" fill="#FF9966"/>
</svg>
