<svg width="36" height="36" viewBox="0 0 36 36" fill="none" xmlns="http://www.w3.org/2000/svg">
<path d="M31.4997 27.4202V17.5802C31.9054 17.3546 32.2532 17.0379 32.5157 16.655C32.7782 16.2721 32.9483 15.8336 33.0126 15.3738C33.0768 14.9141 33.0335 14.4457 32.8861 14.0055C32.7386 13.5654 32.491 13.1654 32.1628 12.8372C31.8345 12.5089 31.4346 12.2613 30.9944 12.1139C30.5542 11.9664 30.0859 11.9231 29.6261 11.9874C29.1664 12.0517 28.7278 12.2217 28.345 12.4842C27.9621 12.7468 27.6454 13.0945 27.4197 13.5002H22.4997V8.58022C22.9054 8.35457 23.2532 8.03785 23.5157 7.65499C23.7782 7.27213 23.9483 6.83358 24.0126 6.37384C24.0768 5.91409 24.0335 5.44571 23.8861 5.00554C23.7386 4.56537 23.491 4.16542 23.1628 3.83718C22.8345 3.50893 22.4346 3.26133 21.9944 3.11388C21.5542 2.96642 21.0859 2.92312 20.6261 2.98739C20.1664 3.05166 19.7278 3.22174 19.345 3.48425C18.9621 3.74676 18.6454 4.09454 18.4197 4.50022H8.57973C8.35408 4.09454 8.03736 3.74676 7.6545 3.48425C7.27165 3.22174 6.83309 3.05166 6.37335 2.98739C5.91361 2.92312 5.44522 2.96642 5.00505 3.11388C4.56488 3.26133 4.16494 3.50893 3.83669 3.83718C3.50844 4.16542 3.26085 4.56537 3.11339 5.00554C2.96593 5.44571 2.92263 5.91409 2.9869 6.37384C3.05117 6.83358 3.22125 7.27213 3.48376 7.65499C3.74627 8.03785 4.09405 8.35457 4.49973 8.58022V18.4202C4.09405 18.6459 3.74627 18.9626 3.48376 19.3454C3.22125 19.7283 3.05117 20.1669 2.9869 20.6266C2.92263 21.0863 2.96593 21.5547 3.11339 21.9949C3.26085 22.4351 3.50844 22.835 3.83669 23.1633C4.16494 23.4915 4.56488 23.7391 5.00505 23.8866C5.44522 24.034 5.91361 24.0773 6.37335 24.0131C6.83309 23.9488 7.27165 23.7787 7.6545 23.5162C8.03736 23.2537 8.35408 22.9059 8.57973 22.5002H13.4997V27.4202C13.0941 27.6459 12.7463 27.9626 12.4838 28.3454C12.2212 28.7283 12.0512 29.1669 11.9869 29.6266C11.9226 30.0863 11.9659 30.5547 12.1134 30.9949C12.2608 31.4351 12.5084 31.835 12.8367 32.1633C13.1649 32.4915 13.5649 32.7391 14.0051 32.8866C14.4452 33.034 14.9136 33.0773 15.3733 33.0131C15.8331 32.9488 16.2716 32.7787 16.6545 32.5162C17.0374 32.2537 17.3541 31.9059 17.5797 31.5002H27.4197C27.6454 31.9059 27.9621 32.2537 28.345 32.5162C28.7278 32.7787 29.1664 32.9488 29.6261 33.0131C30.0859 33.0773 30.5542 33.034 30.9944 32.8866C31.4346 32.7391 31.8345 32.4915 32.1628 32.1633C32.491 31.835 32.7386 31.4351 32.8861 30.9949C33.0335 30.5547 33.0768 30.0863 33.0126 29.6266C32.9483 29.1669 32.7782 28.7283 32.5157 28.3454C32.2532 27.9626 31.9054 27.6459 31.4997 27.4202ZM11.9997 15.0002C12.0029 15.5238 12.143 16.0374 12.4062 16.49C12.6693 16.9426 13.0463 17.3185 13.4997 17.5802V19.5002H8.57973C8.32409 19.0491 7.95082 18.6759 7.49973 18.4202V8.58022C7.95082 8.32458 8.32409 7.95131 8.57973 7.50022H18.4197C18.6754 7.95131 19.0486 8.32458 19.4997 8.58022V13.5002H17.5797C17.2457 12.9371 16.7366 12.4987 16.1301 12.252C15.5236 12.0053 14.8531 11.9637 14.2208 12.1337C13.5885 12.3037 13.0291 12.6758 12.6281 13.1934C12.2271 13.711 12.0064 14.3455 11.9997 15.0002ZM19.4997 16.5002V18.4202C19.0486 18.6759 18.6754 19.0491 18.4197 19.5002H16.4997V17.5802C16.9508 17.3246 17.3241 16.9513 17.5797 16.5002H19.4997ZM28.4997 27.4202C28.0486 27.6759 27.6754 28.0491 27.4197 28.5002H17.5797C17.3241 28.0491 16.9508 27.6759 16.4997 27.4202V22.5002H18.4197C18.6454 22.9059 18.9621 23.2537 19.345 23.5162C19.7278 23.7787 20.1664 23.9488 20.6261 24.0131C21.0859 24.0773 21.5542 24.034 21.9944 23.8866C22.4346 23.7391 22.8345 23.4915 23.1628 23.1633C23.491 22.835 23.7386 22.4351 23.8861 21.9949C24.0335 21.5547 24.0768 21.0863 24.0126 20.6266C23.9483 20.1669 23.7782 19.7283 23.5157 19.3454C23.2532 18.9626 22.9054 18.6459 22.4997 18.4202V16.5002H27.4197C27.6754 16.9513 28.0486 17.3246 28.4997 17.5802V27.4202Z" fill="#FF9966"/>
</svg>
