<svg width="42" height="42" viewBox="0 0 42 42" fill="none" xmlns="http://www.w3.org/2000/svg">
<path d="M32.9642 28.7158H17.9042C16.5337 28.7061 15.2063 28.2357 14.1354 27.3804C13.0646 26.525 12.3125 25.3343 12.0002 23.9998L9.60021 14.2438C9.3794 13.3379 9.36808 12.3936 9.56711 11.4827C9.76614 10.5718 10.1703 9.71831 10.7488 8.98708C11.3273 8.25585 12.0649 7.66617 12.9056 7.2629C13.7463 6.85962 14.6678 6.65336 15.6002 6.65981H35.4002C36.3326 6.65336 37.2542 6.85962 38.0948 7.2629C38.9355 7.66617 39.6731 8.25585 40.2516 8.98708C40.8301 9.71831 41.2343 10.5718 41.4333 11.4827C41.6323 12.3936 41.621 13.3379 41.4002 14.2438L39.0002 24.0238C38.6761 25.3749 37.902 26.5755 36.805 27.4283C35.708 28.281 34.3535 28.7351 32.9642 28.7158ZM15.5282 9.65981C15.0539 9.66126 14.586 9.77001 14.1597 9.97792C13.7334 10.1858 13.3596 10.4875 13.0664 10.8604C12.7732 11.2332 12.5682 11.6676 12.4667 12.1309C12.3651 12.5942 12.3698 13.0745 12.4802 13.5358L14.8802 23.3158C15.0428 24.0012 15.4324 24.6114 15.9858 25.0471C16.5393 25.4829 17.2238 25.7186 17.9282 25.7158H32.9642C33.6686 25.7186 34.3532 25.4829 34.9066 25.0471C35.46 24.6114 35.8497 24.0012 36.0122 23.3158L38.4122 13.5358C38.5251 13.0743 38.5315 12.5932 38.4309 12.1289C38.3303 11.6646 38.1255 11.2292 37.8318 10.8558C37.5381 10.4823 37.1634 10.1806 36.7359 9.97339C36.3083 9.76619 35.8393 9.65896 35.3642 9.65981H15.5282Z" fill="#FF9966"/>
<path d="M11.3523 16.7998C11.0096 16.7958 10.6786 16.6745 10.4145 16.4562C10.1503 16.2379 9.96884 15.9356 9.90032 15.5998L7.75232 6.27585C7.55397 5.42647 7.07322 4.66955 6.38874 4.12893C5.70425 3.58832 4.85654 3.29601 3.98432 3.29985H2.02832C1.6305 3.29985 1.24896 3.14181 0.96766 2.86051C0.686356 2.5792 0.52832 2.19767 0.52832 1.79985C0.52832 1.40202 0.686356 1.02049 0.96766 0.739186C1.24896 0.457882 1.6305 0.299847 2.02832 0.299847H3.98432C5.53448 0.294431 7.04067 0.814818 8.25687 1.77601C9.47307 2.7372 10.3274 4.08238 10.6803 5.59185L12.8163 14.9158C12.8626 15.1074 12.8703 15.3062 12.8391 15.5007C12.8079 15.6952 12.7383 15.8816 12.6345 16.0491C12.5307 16.2165 12.3947 16.3617 12.2343 16.4762C12.0739 16.5906 11.8924 16.6721 11.7003 16.7158C11.5876 16.7559 11.4709 16.7841 11.3523 16.7998ZM18.1323 41.6998C17.183 41.6998 16.2549 41.4183 15.4656 40.8909C14.6762 40.3635 14.061 39.6138 13.6977 38.7367C13.3344 37.8596 13.2393 36.8945 13.4246 35.9634C13.6098 35.0323 14.0669 34.177 14.7382 33.5057C15.4095 32.8344 16.2648 32.3773 17.1959 32.1921C18.127 32.0069 19.0921 32.1019 19.9692 32.4652C20.8463 32.8285 21.5959 33.4438 22.1234 34.2331C22.6508 35.0225 22.9323 35.9505 22.9323 36.8998C22.9323 38.1729 22.4266 39.3938 21.5264 40.294C20.6263 41.1941 19.4054 41.6998 18.1323 41.6998ZM18.1323 35.0518C17.7716 35.0518 17.4189 35.1588 17.119 35.3592C16.819 35.5597 16.5852 35.8445 16.4472 36.1778C16.3091 36.5111 16.273 36.8779 16.3434 37.2317C16.4137 37.5855 16.5875 37.9105 16.8426 38.1656C17.0976 38.4207 17.4227 38.5944 17.7765 38.6648C18.1303 38.7352 18.497 38.6991 18.8303 38.561C19.1636 38.4229 19.4485 38.1892 19.6489 37.8892C19.8493 37.5892 19.9563 37.2366 19.9563 36.8758C19.9563 36.3921 19.7642 35.9281 19.4221 35.5861C19.08 35.244 18.6161 35.0518 18.1323 35.0518ZM34.7163 41.6998C33.767 41.6998 32.8389 41.4183 32.0496 40.8909C31.2602 40.3635 30.645 39.6138 30.2817 38.7367C29.9184 37.8596 29.8233 36.8945 30.0086 35.9634C30.1938 35.0323 30.6509 34.177 31.3222 33.5057C31.9935 32.8344 32.8488 32.3773 33.7799 32.1921C34.711 32.0069 35.6761 32.1019 36.5532 32.4652C37.4303 32.8285 38.1799 33.4438 38.7074 34.2331C39.2348 35.0225 39.5163 35.9505 39.5163 36.8998C39.5163 38.1729 39.0106 39.3938 38.1104 40.294C37.2103 41.1941 35.9894 41.6998 34.7163 41.6998ZM34.7163 35.0518C34.3561 35.0542 34.0046 35.1632 33.7063 35.3651C33.4079 35.5669 33.176 35.8526 33.0397 36.1861C32.9035 36.5196 32.8691 36.886 32.9408 37.239C33.0126 37.592 33.1872 37.9159 33.4428 38.1698C33.6984 38.4237 34.0234 38.5962 34.3769 38.6656C34.7304 38.735 35.0965 38.6982 35.4291 38.5598C35.7617 38.4214 36.0458 38.1876 36.2457 37.8879C36.4456 37.5883 36.5523 37.2361 36.5523 36.8758C36.5523 36.6353 36.5048 36.3971 36.4123 36.175C36.3199 35.953 36.1845 35.7514 36.0138 35.5818C35.8432 35.4123 35.6407 35.2782 35.418 35.1872C35.1953 35.0963 34.9569 35.0503 34.7163 35.0518Z" fill="#FF9966"/>
<path d="M34.7157 35.0518H14.7237C13.4856 35.0518 12.2983 34.56 11.4229 33.6846C10.5475 32.8092 10.0557 31.6218 10.0557 30.3838C10.0557 29.1458 10.5475 27.9585 11.4229 27.083C12.2983 26.2076 13.4856 25.7158 14.7237 25.7158H17.9037C18.3015 25.7158 18.683 25.8739 18.9643 26.1552C19.2456 26.4365 19.4037 26.818 19.4037 27.2158C19.4037 27.6136 19.2456 27.9952 18.9643 28.2765C18.683 28.5578 18.3015 28.7158 17.9037 28.7158H14.7237C14.2813 28.7158 13.857 28.8916 13.5442 29.2044C13.2314 29.5172 13.0557 29.9414 13.0557 30.3838C13.0557 30.8262 13.2314 31.2505 13.5442 31.5633C13.857 31.8761 14.2813 32.0518 14.7237 32.0518H34.7157C35.1135 32.0518 35.495 32.2099 35.7763 32.4912C36.0576 32.7725 36.2157 33.154 36.2157 33.5518C36.2157 33.9496 36.0576 34.3312 35.7763 34.6125C35.495 34.8938 35.1135 35.0518 34.7157 35.0518Z" fill="#FF9966"/>
</svg>
