<svg width="40" height="40" viewBox="0 0 40 40" fill="none" xmlns="http://www.w3.org/2000/svg">
<path d="M39 20C39 30.4934 30.4934 39 20 39C9.50659 39 1 30.4934 1 20C1 9.50659 9.50659 1 20 1C30.4934 1 39 9.50659 39 20Z" stroke="#FF9966" stroke-width="2"/>
<path d="M21.3307 11.9998C21.3307 12.7362 20.7338 13.3332 19.9974 13.3332C19.261 13.3332 18.6641 12.7362 18.6641 11.9998C18.6641 11.2635 19.261 10.6665 19.9974 10.6665C20.7338 10.6665 21.3307 11.2635 21.3307 11.9998Z" fill="#FF9966"/>
<path d="M18.6641 17.3333C18.6641 16.597 19.261 16 19.9974 16C20.7338 16 21.3307 16.597 21.3307 17.3333V26.6667C21.3307 27.403 20.7338 28 19.9974 28C19.261 28 18.6641 27.403 18.6641 26.6667V17.3333Z" fill="#FF9966"/>
</svg>
