<svg width="24" height="24" viewBox="0 0 24 24" fill="none" xmlns="http://www.w3.org/2000/svg">
<path d="M17.1116 22C15.7332 22 14.6116 20.8784 14.6116 19.5C14.6116 18.1216 15.7332 17 17.1116 17C18.49 17 19.6116 18.1216 19.6116 19.5C19.6116 20.8784 18.49 22 17.1116 22ZM17.1116 18.6667C16.6516 18.6667 16.2783 19.04 16.2783 19.5C16.2783 19.96 16.6516 20.3333 17.1116 20.3333C17.5716 20.3333 17.9449 19.96 17.9449 19.5C17.9449 19.04 17.5716 18.6667 17.1116 18.6667ZM9.38909 22C8.01073 22 6.88909 20.8784 6.88909 19.5C6.88909 18.1216 8.01073 17 9.38909 17C10.7675 17 11.8891 18.1216 11.8891 19.5C11.8891 20.8784 10.7675 22 9.38909 22ZM9.38909 18.6667C8.92998 18.6667 8.5558 19.04 8.5558 19.5C8.5558 19.96 8.92998 20.3333 9.38909 20.3333C9.8482 20.3333 10.2224 19.96 10.2224 19.5C10.2224 19.04 9.8482 18.6667 9.38909 18.6667ZM8.47405 16.1667C7.64159 16.1667 6.91991 15.5742 6.75741 14.7592L4.60744 3.72991C4.60074 3.69489 4.56573 3.66657 4.52583 3.66657H2.83329C2.37332 3.66657 2 3.29325 2 2.83329C2 2.37332 2.37332 2 2.83329 2H4.52583C5.35743 2 6.07911 2.59164 6.24247 3.40668L6.78083 6.16672H20.2501C20.781 6.16672 21.2768 6.40333 21.6109 6.81668C21.945 7.23004 22.0734 7.76422 21.9618 8.28333L20.8901 13.6151C20.7443 14.3618 20.1359 14.9276 19.3759 15.0184L8.56155 16.1617L8.47405 16.1667ZM7.10491 7.83349L8.39245 14.4367L8.45327 14.4975L19.1876 13.3625L19.2534 13.2916L20.3285 7.94483L20.2494 7.83322L7.10491 7.83349ZM16.9999 18.6667H8.33312C7.19977 18.6667 6.27734 17.745 6.27734 16.6109C6.27734 15.4767 7.19977 14.5551 8.33312 14.5551C8.79309 14.5551 9.16641 14.9276 9.16641 15.3884C9.16641 15.8492 8.79309 16.2217 8.33312 16.2217C8.12233 16.2217 7.94391 16.4 7.94391 16.6109C7.94391 16.8217 8.1222 17.0001 8.33312 17.0001H16.9999C17.4607 17.0001 17.8332 17.3726 17.8332 17.8334C17.8332 18.2942 17.4607 18.6667 16.9999 18.6667Z" fill="#3E3E3E"/>
</svg>
