<svg width="20" height="20" viewBox="0 0 20 20" fill="none" xmlns="http://www.w3.org/2000/svg">
<path d="M15.1116 20C13.7332 20 12.6116 18.8784 12.6116 17.5C12.6116 16.1216 13.7332 15 15.1116 15C16.49 15 17.6116 16.1216 17.6116 17.5C17.6116 18.8784 16.49 20 15.1116 20ZM15.1116 16.6667C14.6516 16.6667 14.2783 17.04 14.2783 17.5C14.2783 17.96 14.6516 18.3333 15.1116 18.3333C15.5716 18.3333 15.9449 17.96 15.9449 17.5C15.9449 17.04 15.5716 16.6667 15.1116 16.6667ZM7.38909 20C6.01073 20 4.88909 18.8784 4.88909 17.5C4.88909 16.1216 6.01073 15 7.38909 15C8.76745 15 9.88909 16.1216 9.88909 17.5C9.88909 18.8784 8.76745 20 7.38909 20ZM7.38909 16.6667C6.92998 16.6667 6.5558 17.04 6.5558 17.5C6.5558 17.96 6.92998 18.3333 7.38909 18.3333C7.8482 18.3333 8.22238 17.96 8.22238 17.5C8.22238 17.04 7.8482 16.6667 7.38909 16.6667ZM6.47405 14.1667C5.64159 14.1667 4.91991 13.5742 4.75741 12.7592L2.60744 1.72991C2.60074 1.69489 2.56573 1.66657 2.52583 1.66657H0.833287C0.373322 1.66657 0 1.29325 0 0.833287C0 0.373322 0.373322 0 0.833287 0H2.52583C3.35743 0 4.07911 0.591644 4.24247 1.40668L4.78083 4.16672H18.2501C18.781 4.16672 19.2768 4.40333 19.6109 4.81668C19.945 5.23004 20.0734 5.76422 19.9618 6.28333L18.8901 11.6151C18.7443 12.3618 18.1359 12.9276 17.3759 13.0184L6.56155 14.1617L6.47405 14.1667ZM5.10491 5.83349L6.39245 12.4367L6.45327 12.4975L17.1876 11.3625L17.2534 11.2916L18.3285 5.94483L18.2494 5.83322L5.10491 5.83349ZM14.9999 16.6667H6.33312C5.19977 16.6667 4.27734 15.745 4.27734 14.6109C4.27734 13.4767 5.19977 12.5551 6.33312 12.5551C6.79309 12.5551 7.16641 12.9276 7.16641 13.3884C7.16641 13.8492 6.79309 14.2217 6.33312 14.2217C6.12233 14.2217 5.94391 14.4 5.94391 14.6109C5.94391 14.8217 6.1222 15.0001 6.33312 15.0001H14.9999C15.4607 15.0001 15.8332 15.3726 15.8332 15.8334C15.8332 16.2942 15.4607 16.6667 14.9999 16.6667Z" fill="white"/>
</svg>
