<svg width="32" height="32" viewBox="0 0 32 32" fill="none" xmlns="http://www.w3.org/2000/svg">
<path d="M16.1 8.42986V5.35986C16.1 5.09465 16.2054 4.84029 16.3929 4.65276C16.5804 4.46522 16.8348 4.35986 17.1 4.35986C17.3652 4.35986 17.6196 4.46522 17.8071 4.65276C17.9947 4.84029 18.1 5.09465 18.1 5.35986V8.42986C18.1 8.69508 17.9947 8.94943 17.8071 9.13697C17.6196 9.32451 17.3652 9.42986 17.1 9.42986C16.8348 9.42986 16.5804 9.32451 16.3929 9.13697C16.2054 8.94943 16.1 8.69508 16.1 8.42986ZM23.1 11.9199C23.2316 11.9206 23.3621 11.8954 23.4839 11.8456C23.6058 11.7959 23.7166 11.7225 23.81 11.6299L26 9.45986C26.1863 9.2725 26.2908 9.01905 26.2908 8.75486C26.2908 8.49068 26.1863 8.23723 26 8.04986C25.8127 7.86361 25.5592 7.75907 25.295 7.75907C25.0308 7.75907 24.7774 7.86361 24.59 8.04986L22.42 10.2199C22.283 10.3596 22.19 10.5366 22.1525 10.7287C22.1151 10.9208 22.1349 11.1197 22.2094 11.3007C22.2839 11.4817 22.4099 11.6369 22.5718 11.7469C22.7337 11.857 22.9243 11.9171 23.12 11.9199H23.1ZM10.37 22.2599L8.20002 24.4299C8.10629 24.5228 8.0319 24.6334 7.98113 24.7553C7.93036 24.8771 7.90422 25.0079 7.90422 25.1399C7.90422 25.2719 7.93036 25.4026 7.98113 25.5244C8.0319 25.6463 8.10629 25.7569 8.20002 25.8499C8.29298 25.9436 8.40358 26.018 8.52544 26.0688C8.6473 26.1195 8.77801 26.1457 8.91002 26.1457C9.04203 26.1457 9.17274 26.1195 9.2946 26.0688C9.41646 26.018 9.52706 25.9436 9.62002 25.8499L11.79 23.6799C11.8833 23.5866 11.9572 23.4759 12.0077 23.3541C12.0581 23.2323 12.0841 23.1017 12.0841 22.9699C12.0841 22.838 12.0581 22.7074 12.0077 22.5856C11.9572 22.4638 11.8833 22.3531 11.79 22.2599C11.6968 22.1666 11.5861 22.0927 11.4643 22.0422C11.3424 21.9917 11.2119 21.9658 11.08 21.9658C10.9482 21.9658 10.8176 21.9917 10.6958 22.0422C10.5739 22.0927 10.4633 22.1666 10.37 22.2599ZM9.58002 16.9999C9.58002 16.7346 9.47466 16.4803 9.28713 16.2928C9.09959 16.1052 8.84524 15.9999 8.58002 15.9999H5.52002C5.2548 15.9999 5.00045 16.1052 4.81291 16.2928C4.62538 16.4803 4.52002 16.7346 4.52002 16.9999C4.52002 17.2651 4.62538 17.5194 4.81291 17.707C5.00045 17.8945 5.2548 17.9999 5.52002 17.9999H8.58002C8.84524 17.9999 9.09959 17.8945 9.28713 17.707C9.47466 17.5194 9.58002 17.2651 9.58002 16.9999ZM9.58002 8.09986C9.3898 7.9853 9.16687 7.93731 8.94636 7.96345C8.72585 7.98959 8.52032 8.08838 8.36216 8.24425C8.20401 8.40011 8.10223 8.60418 8.07287 8.82428C8.04351 9.04438 8.08825 9.268 8.20002 9.45986L10.37 11.6299C10.4635 11.7225 10.5743 11.7959 10.6961 11.8456C10.818 11.8954 10.9484 11.9206 11.08 11.9199C11.2116 11.9206 11.3421 11.8954 11.4639 11.8456C11.5858 11.7959 11.6966 11.7225 11.79 11.6299C11.9763 11.4425 12.0808 11.189 12.0808 10.9249C12.0808 10.6607 11.9763 10.4072 11.79 10.2199L9.58002 8.09986ZM27.15 27.3999C26.9627 27.5861 26.7092 27.6907 26.445 27.6907C26.1808 27.6907 25.9274 27.5861 25.74 27.3999L22.11 23.7699L19.53 27.1199C19.4369 27.2409 19.3172 27.3389 19.1803 27.4066C19.0433 27.4742 18.8927 27.5095 18.74 27.5099H18.57C18.3904 27.4784 18.2227 27.3985 18.0852 27.2786C17.9477 27.1587 17.8457 27.0036 17.79 26.8299L14.28 15.6999C14.2231 15.5245 14.2157 15.3368 14.2588 15.1575C14.3018 14.9781 14.3936 14.8142 14.524 14.6838C14.6544 14.5535 14.8183 14.4617 14.9976 14.4186C15.1769 14.3755 15.3646 14.3829 15.54 14.4399L26.61 17.9999C26.7853 18.0543 26.9422 18.1559 27.0636 18.2936C27.1849 18.4313 27.2661 18.5997 27.2981 18.7804C27.3301 18.9612 27.3118 19.1472 27.2451 19.3182C27.1784 19.4892 27.0659 19.6385 26.92 19.7499L23.57 22.3299L27.19 25.9499C27.3732 26.1368 27.4759 26.3881 27.4759 26.6499C27.4759 26.9116 27.3732 27.1629 27.19 27.3499L27.15 27.3999ZM21.26 21.5999L21.33 21.5399L21.4 21.4799L24.14 19.3699L16.73 16.9999L19.1 24.3999L21.26 21.5999Z" fill="#FF9966"/>
</svg>
