<svg width="32" height="32" viewBox="0 0 32 32" fill="none" xmlns="http://www.w3.org/2000/svg">
<path d="M16.0995 8.42986V5.35986C16.0995 5.09465 16.2049 4.84029 16.3924 4.65276C16.58 4.46522 16.8343 4.35986 17.0995 4.35986C17.3647 4.35986 17.6191 4.46522 17.8066 4.65276C17.9942 4.84029 18.0995 5.09465 18.0995 5.35986V8.42986C18.0995 8.69508 17.9942 8.94943 17.8066 9.13697C17.6191 9.32451 17.3647 9.42986 17.0995 9.42986C16.8343 9.42986 16.58 9.32451 16.3924 9.13697C16.2049 8.94943 16.0995 8.69508 16.0995 8.42986ZM23.0995 11.9199C23.2311 11.9206 23.3616 11.8954 23.4834 11.8456C23.6053 11.7959 23.7161 11.7225 23.8095 11.6299L25.9995 9.45986C26.1858 9.2725 26.2903 9.01905 26.2903 8.75486C26.2903 8.49068 26.1858 8.23723 25.9995 8.04986C25.8122 7.86361 25.5587 7.75907 25.2945 7.75907C25.0303 7.75907 24.7769 7.86361 24.5895 8.04986L22.4195 10.2199C22.2825 10.3596 22.1895 10.5366 22.152 10.7287C22.1146 10.9208 22.1344 11.1197 22.2089 11.3007C22.2834 11.4817 22.4094 11.6369 22.5713 11.7469C22.7332 11.857 22.9238 11.9171 23.1195 11.9199H23.0995ZM10.3695 22.2599L8.19953 24.4299C8.1058 24.5228 8.03141 24.6334 7.98064 24.7553C7.92987 24.8771 7.90373 25.0079 7.90373 25.1399C7.90373 25.2719 7.92987 25.4026 7.98064 25.5244C8.03141 25.6463 8.1058 25.7569 8.19953 25.8499C8.29249 25.9436 8.4031 26.018 8.52495 26.0688C8.64681 26.1195 8.77752 26.1457 8.90953 26.1457C9.04154 26.1457 9.17225 26.1195 9.29411 26.0688C9.41597 26.018 9.52657 25.9436 9.61953 25.8499L11.7895 23.6799C11.8828 23.5866 11.9567 23.4759 12.0072 23.3541C12.0577 23.2323 12.0836 23.1017 12.0836 22.9699C12.0836 22.838 12.0577 22.7074 12.0072 22.5856C11.9567 22.4638 11.8828 22.3531 11.7895 22.2599C11.6963 22.1666 11.5856 22.0927 11.4638 22.0422C11.342 21.9917 11.2114 21.9658 11.0795 21.9658C10.9477 21.9658 10.8171 21.9917 10.6953 22.0422C10.5735 22.0927 10.4628 22.1666 10.3695 22.2599ZM9.57953 16.9999C9.57953 16.7346 9.47417 16.4803 9.28664 16.2928C9.0991 16.1052 8.84475 15.9999 8.57953 15.9999H5.51953C5.25431 15.9999 4.99996 16.1052 4.81242 16.2928C4.62489 16.4803 4.51953 16.7346 4.51953 16.9999C4.51953 17.2651 4.62489 17.5194 4.81242 17.707C4.99996 17.8945 5.25431 17.9999 5.51953 17.9999H8.57953C8.84475 17.9999 9.0991 17.8945 9.28664 17.707C9.47417 17.5194 9.57953 17.2651 9.57953 16.9999ZM9.57953 8.09986C9.38932 7.9853 9.16638 7.93731 8.94587 7.96345C8.72537 7.98959 8.51983 8.08838 8.36168 8.24425C8.20352 8.40011 8.10174 8.60418 8.07238 8.82428C8.04302 9.04438 8.08776 9.268 8.19953 9.45986L10.3695 11.6299C10.463 11.7225 10.5738 11.7959 10.6956 11.8456C10.8175 11.8954 10.9479 11.9206 11.0795 11.9199C11.2111 11.9206 11.3416 11.8954 11.4634 11.8456C11.5853 11.7959 11.6961 11.7225 11.7895 11.6299C11.9758 11.4425 12.0803 11.189 12.0803 10.9249C12.0803 10.6607 11.9758 10.4072 11.7895 10.2199L9.57953 8.09986ZM27.1495 27.3999C26.9622 27.5861 26.7087 27.6907 26.4445 27.6907C26.1803 27.6907 25.9269 27.5861 25.7395 27.3999L22.1095 23.7699L19.5295 27.1199C19.4364 27.2409 19.3167 27.3389 19.1798 27.4066C19.0429 27.4742 18.8922 27.5095 18.7395 27.5099H18.5695C18.3899 27.4784 18.2222 27.3985 18.0847 27.2786C17.9473 27.1587 17.8452 27.0036 17.7895 26.8299L14.2795 15.6999C14.2226 15.5245 14.2152 15.3368 14.2583 15.1575C14.3013 14.9781 14.3931 14.8142 14.5235 14.6838C14.6539 14.5535 14.8178 14.4617 14.9971 14.4186C15.1764 14.3755 15.3641 14.3829 15.5395 14.4399L26.6095 17.9999C26.7848 18.0543 26.9417 18.1559 27.0631 18.2936C27.1844 18.4313 27.2656 18.5997 27.2976 18.7804C27.3296 18.9612 27.3113 19.1472 27.2446 19.3182C27.1779 19.4892 27.0654 19.6385 26.9195 19.7499L23.5695 22.3299L27.1895 25.9499C27.3728 26.1368 27.4754 26.3881 27.4754 26.6499C27.4754 26.9116 27.3728 27.1629 27.1895 27.3499L27.1495 27.3999ZM21.2595 21.5999L21.3295 21.5399L21.3995 21.4799L24.1395 19.3699L16.7295 16.9999L19.0995 24.3999L21.2595 21.5999Z" fill="white"/>
</svg>
