<svg width="13" height="13" viewBox="0 0 13 13" fill="none" xmlns="http://www.w3.org/2000/svg">
<path d="M11.9694 10.5563L7.72671 6.31371L11.9694 2.07107C12.1569 1.88353 12.2622 1.62918 12.2622 1.36396C12.2622 1.09875 12.1569 0.844391 11.9694 0.656855C11.7818 0.469318 11.5275 0.363962 11.2622 0.363962C10.997 0.363962 10.7427 0.469318 10.5551 0.656855L6.3125 4.8995L2.06986 0.656854C1.88232 0.469318 1.62797 0.363961 1.36275 0.363961C1.09754 0.363961 0.843182 0.469318 0.655645 0.656854C0.468109 0.844391 0.362752 1.09874 0.362752 1.36396C0.362752 1.62918 0.468109 1.88353 0.655645 2.07107L4.89829 6.31371L0.655645 10.5563C0.468108 10.7439 0.362751 10.9982 0.362751 11.2635C0.362751 11.5287 0.468109 11.783 0.655645 11.9706C0.843182 12.1581 1.09753 12.2635 1.36275 12.2635C1.62797 12.2635 1.88232 12.1581 2.06986 11.9706L6.3125 7.72792L10.5551 11.9706C10.7427 12.1581 10.997 12.2635 11.2622 12.2635C11.5275 12.2635 11.7818 12.1581 11.9694 11.9706C12.1569 11.783 12.2622 11.5287 12.2622 11.2635C12.2622 10.9982 12.1569 10.7439 11.9694 10.5563Z" fill="#C4C4C4"/>
</svg>
