<svg width="24" height="24" viewBox="0 0 24 24" fill="none" xmlns="http://www.w3.org/2000/svg">
<path d="M21.1479 2.85977C20.7658 2.47033 20.2813 2.19698 19.7504 2.07134C19.2195 1.9457 18.6639 1.97289 18.1479 2.14977L3.99785 6.87977C3.42717 7.06657 2.92854 7.42591 2.57081 7.9082C2.21307 8.39049 2.01387 8.97193 2.0007 9.57227C1.98753 10.1726 2.16104 10.7622 2.49728 11.2597C2.83352 11.7572 3.31591 12.1381 3.87785 12.3498L9.11785 14.3498C9.23717 14.3954 9.34581 14.4651 9.437 14.5546C9.52818 14.644 9.59996 14.7513 9.64785 14.8698L11.6479 20.1198C11.8514 20.6738 12.2209 21.1515 12.7058 21.4879C13.1908 21.8244 13.7676 22.0031 14.3579 21.9998H14.4279C15.0289 21.9888 15.6114 21.7901 16.0938 21.4314C16.5762 21.0728 16.9343 20.5722 17.1179 19.9998L21.8479 5.82977C22.0199 5.3187 22.0455 4.76971 21.9218 4.24485C21.7981 3.72 21.53 3.24022 21.1479 2.85977ZM19.9979 5.19977L15.2179 19.3798C15.1623 19.5592 15.0509 19.7162 14.8997 19.8278C14.7486 19.9394 14.5657 19.9996 14.3779 19.9998C14.1911 20.0028 14.0078 19.949 13.8524 19.8454C13.697 19.7418 13.5769 19.5933 13.5079 19.4198L11.5079 14.1698C11.3629 13.7883 11.1392 13.4416 10.8515 13.1521C10.5638 12.8627 10.2185 12.637 9.83785 12.4898L4.58785 10.4898C4.41074 10.4249 4.2585 10.306 4.15264 10.1499C4.04677 9.99374 3.99262 9.80832 3.99785 9.61977C3.998 9.43191 4.05827 9.24903 4.16983 9.09789C4.28138 8.94675 4.43838 8.83527 4.61785 8.77977L18.7979 4.04977C18.9607 3.98341 19.1392 3.96564 19.3119 3.99859C19.4846 4.03154 19.644 4.11381 19.7709 4.23545C19.8979 4.35709 19.9868 4.5129 20.0271 4.68403C20.0674 4.85516 20.0572 5.03429 19.9979 5.19977Z" fill="#3E3E3E"/>
</svg>
