<svg width="22" height="22" viewBox="0 0 22 22" fill="none" xmlns="http://www.w3.org/2000/svg">
<path d="M15.774 20.9997C8.99816 21.2288 -3.20849 9.1205 2.459 2.5555L3.41733 1.72216C3.90244 1.25322 4.55268 0.994145 5.22735 1.00101C5.90203 1.00787 6.54687 1.28011 7.02233 1.75883C7.04803 1.785 7.07197 1.81284 7.094 1.84216L8.59399 3.79133C9.04985 4.27369 9.30313 4.91265 9.30158 5.57633C9.30003 6.24001 9.04376 6.87777 8.58566 7.358L7.62066 8.57133C8.15493 9.86889 8.94018 11.0482 9.93135 12.0415C10.9225 13.0348 12.1001 13.8226 13.3965 14.3597L14.6165 13.3888C15.103 12.942 15.7392 12.6937 16.3997 12.6928C17.0602 12.6919 17.6971 12.9384 18.1848 13.3838L20.1348 14.8838C20.1639 14.9058 20.1918 14.9295 20.2181 14.9547C20.699 15.44 20.9688 16.0956 20.9688 16.7788C20.9688 17.4621 20.699 18.1177 20.2181 18.603L19.459 19.478C18.9774 19.9648 18.4033 20.3502 17.7704 20.6116C17.1375 20.8729 16.4587 21.0049 15.774 20.9997ZM5.19817 2.66633C5.07841 2.66624 4.95981 2.68974 4.84914 2.7355C4.73847 2.78125 4.63789 2.84836 4.55317 2.933L3.594 3.76633C-1.11099 9.423 13.2865 23.0188 18.239 18.3397L18.999 17.4638C19.0893 17.3834 19.1629 17.2859 19.2154 17.177C19.2679 17.068 19.2983 16.9498 19.3049 16.829C19.3114 16.7082 19.2941 16.5874 19.2537 16.4733C19.2134 16.3593 19.1509 16.2544 19.0698 16.1647L17.1307 14.6755C17.1009 14.6536 17.0731 14.6294 17.0473 14.603C16.8734 14.4373 16.6425 14.3449 16.4023 14.3449C16.1622 14.3449 15.9312 14.4373 15.7573 14.603C15.7352 14.6254 15.7118 14.6465 15.6873 14.6663L14.0557 15.9663C13.9424 16.0565 13.8076 16.1156 13.6645 16.1378C13.5215 16.16 13.3751 16.1446 13.2398 16.093C11.5599 15.4672 10.0342 14.4876 8.76591 13.2206C7.49765 11.9537 6.51653 10.4289 5.889 8.74966C5.83344 8.61247 5.81543 8.46296 5.83682 8.3165C5.8582 8.17004 5.91821 8.03191 6.01066 7.91633L7.30566 6.28633C7.32492 6.26164 7.3458 6.23826 7.36816 6.21633C7.53839 6.04465 7.6339 5.81268 7.6339 5.57091C7.6339 5.32915 7.53839 5.09718 7.36816 4.9255C7.34219 4.89958 7.31823 4.87172 7.2965 4.84216L5.81067 2.9055C5.64278 2.7538 5.42443 2.67003 5.19817 2.6705V2.66633ZM19.7756 11.4797C23.934 5.35883 16.609 -1.95867 10.4948 2.19883C10.4026 2.26039 10.3236 2.33973 10.2625 2.4322C10.2013 2.52467 10.1592 2.62842 10.1387 2.73736C10.1181 2.84631 10.1195 2.95825 10.1428 3.06665C10.166 3.17505 10.2106 3.27773 10.2741 3.36865C10.3375 3.45958 10.4184 3.53694 10.5121 3.5962C10.6058 3.65545 10.7104 3.69542 10.8198 3.71375C10.9291 3.73208 11.041 3.72841 11.1489 3.70296C11.2568 3.6775 11.3585 3.63077 11.4482 3.5655C16.0098 0.432997 21.5398 5.96883 18.409 10.5272C18.3423 10.6167 18.2943 10.7187 18.2678 10.8272C18.2413 10.9356 18.2369 11.0483 18.2548 11.1585C18.2727 11.2687 18.3125 11.3742 18.372 11.4687C18.4314 11.5632 18.5093 11.6447 18.6009 11.7086C18.6924 11.7724 18.7959 11.8172 18.9052 11.8403C19.0144 11.8633 19.1271 11.8642 19.2367 11.8429C19.3463 11.8215 19.4505 11.7783 19.543 11.716C19.6356 11.6536 19.7147 11.5732 19.7756 11.4797ZM16.5607 9.9255C16.7169 9.76923 16.8046 9.5573 16.8046 9.33633C16.8046 9.11536 16.7169 8.90344 16.5607 8.74716L15.139 7.32466V5.16633C15.139 4.94532 15.0512 4.73336 14.8949 4.57708C14.7386 4.42079 14.5267 4.333 14.3057 4.333C14.0846 4.333 13.8727 4.42079 13.7164 4.57708C13.5601 4.73336 13.4723 4.94532 13.4723 5.16633V7.66633C13.4724 7.88733 13.5602 8.09925 13.7165 8.2555L15.3832 9.92216C15.5394 10.0784 15.7513 10.1662 15.9723 10.1662C16.1933 10.1662 16.4052 10.0784 16.5615 9.92216L16.5607 9.9255Z" fill="#3E3E3E" stroke="#3E3E3E" stroke-width="0.2"/>
</svg>
