<svg width="16" height="16" viewBox="0 0 16 16" fill="none" xmlns="http://www.w3.org/2000/svg">
<path d="M12.1999 1L12.3397 1.00342C13.8211 1.07627 14.9999 2.3005 14.9999 3.79994V9.39997L14.9965 9.53972C14.9237 11.0212 13.6994 12.2 12.2 12.2L12.1966 12.3397C12.1237 13.8212 10.8995 15 9.40005 15H3.80001L3.66027 14.9966C2.17881 14.9237 1 13.6995 1 12.2001V6.60003L1.00342 6.46028C1.07627 4.97882 2.3005 3.80001 3.79994 3.80001L3.80335 3.66027C3.87621 2.17881 5.10044 1 6.59987 1L12.1999 1ZM3.79985 5.20003L3.69536 5.20384C2.97093 5.25735 2.39985 5.86194 2.39985 6.60004V12.2001L2.40366 12.3046C2.45718 13.029 3.06177 13.6001 3.79987 13.6001H9.39991L9.5044 13.5963C10.2288 13.5428 10.7999 12.9382 10.7999 12.2001H6.59988L6.46013 12.1966C4.97868 12.1238 3.79987 10.8996 3.79987 9.40013L3.79985 5.20003ZM12.1999 2.40001H6.59987L6.49538 2.40382C5.77095 2.45733 5.19987 3.06192 5.19987 3.80003V9.40006L5.20368 9.50456C5.25719 10.229 5.86178 10.8001 6.59989 10.8001H12.1999C12.9732 10.8001 13.5999 10.1733 13.5999 9.40005V3.80002L13.5961 3.69553C13.5426 2.9711 12.938 2.40001 12.1999 2.40001Z" fill="#3E3E3E"/>
</svg>
