<svg width="16" height="16" viewBox="0 0 16 16" fill="none" xmlns="http://www.w3.org/2000/svg">
<path d="M12.2011 7.23276C12.0511 7.08368 11.8483 7 11.6368 7C11.4253 7 11.2225 7.08368 11.0725 7.23276L8.19893 10.0663L5.36538 7.23276C5.21541 7.08368 5.01254 7 4.80108 7C4.58961 7 4.38674 7.08368 4.23677 7.23276C4.16174 7.30717 4.1022 7.3957 4.06156 7.49324C4.02092 7.59078 4 7.6954 4 7.80107C4 7.90674 4.02092 8.01136 4.06156 8.1089C4.1022 8.20644 4.16174 8.29497 4.23677 8.36938L7.63062 11.7632C7.70503 11.8383 7.79356 11.8978 7.8911 11.9384C7.98864 11.9791 8.09326 12 8.19893 12C8.3046 12 8.40922 11.9791 8.50676 11.9384C8.6043 11.8978 8.69283 11.8383 8.76724 11.7632L12.2011 8.36938C12.2761 8.29497 12.3357 8.20644 12.3763 8.1089C12.417 8.01136 12.4379 7.90674 12.4379 7.80107C12.4379 7.6954 12.417 7.59078 12.3763 7.49324C12.3357 7.3957 12.2761 7.30717 12.2011 7.23276Z" fill="#616161"/>
</svg>
