<svg width="24" height="24" viewBox="0 0 24 24" fill="none" xmlns="http://www.w3.org/2000/svg">
<path d="M10 17C10 16.7348 10.1054 16.4804 10.2929 16.2929C10.4804 16.1054 10.7348 16 11 16L16 16L16 11C16 10.7348 16.1054 10.4804 16.2929 10.2929C16.4804 10.1054 16.7348 10 17 10C17.2652 10 17.5196 10.1054 17.7071 10.2929C17.8946 10.4804 18 10.7348 18 11L18 17C18 17.2652 17.8946 17.5196 17.7071 17.7071C17.5196 17.8946 17.2652 18 17 18L11 18C10.7348 18 10.4804 17.8946 10.2929 17.7071C10.1054 17.5196 10 17.2652 10 17Z" fill="#C4C4C4"/>
<path d="M6.00267 6.99996C6.00151 6.80133 6.05953 6.60686 6.16934 6.44134C6.27914 6.27582 6.43574 6.14675 6.61919 6.07059C6.80263 5.99442 7.0046 5.97461 7.19935 6.01368C7.3941 6.05275 7.5728 6.14893 7.71267 6.28996L17.7127 16.29C17.8765 16.4813 17.9621 16.7273 17.9524 16.979C17.9427 17.2307 17.8383 17.4694 17.6602 17.6475C17.4821 17.8256 17.2434 17.9299 16.9917 17.9397C16.74 17.9494 16.494 17.8638 16.3027 17.7L6.30267 7.69996C6.11425 7.51533 6.00642 7.26373 6.00267 6.99996Z" fill="#C4C4C4"/>
</svg>
