<svg width="61" height="61" viewBox="0 0 61 61" fill="none" xmlns="http://www.w3.org/2000/svg">
<path d="M46.0719 36.2666C41.8321 36.2666 38.3828 39.7158 38.3828 43.9557C38.3828 48.1956 41.8321 51.6448 46.0719 51.6448C50.3125 51.6448 53.761 48.1956 53.761 43.9557C53.761 39.7158 50.3118 36.2666 46.0719 36.2666ZM46.0719 47.8002C43.9517 47.8002 42.2274 46.0759 42.2274 43.9557C42.2274 41.8355 43.9517 40.1111 46.0719 40.1111C48.1921 40.1111 49.9165 41.8355 49.9165 43.9557C49.9165 46.076 48.1921 47.8002 46.0719 47.8002Z" fill="#FF9966"/>
<path d="M19.7985 36.2666C15.5586 36.2666 12.1094 39.7158 12.1094 43.9557C12.1094 48.1956 15.5586 51.6448 19.7985 51.6448C24.0383 51.6448 27.4876 48.1956 27.4876 43.9557C27.4876 39.7158 24.0383 36.2666 19.7985 36.2666ZM19.7985 47.8002C17.6782 47.8002 15.9539 46.0759 15.9539 43.9557C15.9539 41.8355 17.6782 40.1111 19.7985 40.1111C21.9181 40.1111 23.643 41.8355 23.643 43.9557C23.643 46.076 21.9187 47.8002 19.7985 47.8002Z" fill="#FF9966"/>
<path d="M51.2481 14.2583C50.9213 13.6092 50.2569 13.1997 49.5302 13.1997H39.4062V17.0443H48.3448L53.5791 27.4552L57.0149 25.7277L51.2481 14.2583Z" fill="#FF9966"/>
<path d="M40.303 42.0977H25.7578V45.9422H40.303V42.0977Z" fill="#FF9966"/>
<path d="M14.0313 42.0977H7.36753C6.30575 42.0977 5.44531 42.9582 5.44531 44.0199C5.44531 45.0817 6.30587 45.9421 7.36753 45.9421H14.0314C15.0932 45.9421 15.9536 45.0815 15.9536 44.0199C15.9536 42.9581 15.0931 42.0977 14.0313 42.0977Z" fill="#FF9966"/>
<path d="M60.5952 30.3461L56.8141 25.4764C56.4509 25.0073 55.8902 24.7331 55.2961 24.7331H41.3276V11.2772C41.3276 10.2154 40.4671 9.35498 39.4054 9.35498H7.36753C6.30575 9.35498 5.44531 10.2155 5.44531 11.2772C5.44531 12.3389 6.30587 13.1994 7.36753 13.1994H37.4831V26.6553C37.4831 27.7171 38.3436 28.5775 39.4053 28.5775H54.3548L57.1543 32.1836V42.0975H51.8359C50.7742 42.0975 49.9137 42.958 49.9137 44.0197C49.9137 45.0815 50.7743 45.9419 51.8359 45.9419H59.0765C60.1383 45.9419 60.9987 45.0813 60.9988 44.0197V31.5252C60.9988 31.0984 60.8566 30.6832 60.5952 30.3461Z" fill="#FF9966"/>
<path d="M13.9053 32.3584H5.06284C4.00106 32.3584 3.14062 33.219 3.14062 34.2806C3.14062 35.3424 4.00118 36.2028 5.06284 36.2028H13.9052C14.967 36.2028 15.8274 35.3423 15.8274 34.2806C15.8276 33.219 14.967 32.3584 13.9053 32.3584Z" fill="#FF9966"/>
<path d="M18.3256 24.7974H1.92222C0.860553 24.7974 0 25.6579 0 26.7197C0 27.7815 0.860553 28.6419 1.92222 28.6419H18.3256C19.3874 28.6419 20.2478 27.7813 20.2478 26.7197C20.2478 25.658 19.3874 24.7974 18.3256 24.7974Z" fill="#FF9966"/>
<path d="M21.4662 17.2363H5.06284C4.00106 17.2363 3.14062 18.0969 3.14062 19.1585C3.14062 20.2203 4.00118 21.0808 5.06284 21.0808H21.4662C22.528 21.0808 23.3885 20.2202 23.3885 19.1585C23.3886 18.0969 22.528 17.2363 21.4662 17.2363Z" fill="#FF9966"/>
</svg>
