<svg width="45" height="46" viewBox="0 0 45 46" fill="none" xmlns="http://www.w3.org/2000/svg">
<path d="M30.9805 19.7656C30.9805 18.7732 30.1935 17.9688 29.2227 17.9688H11.1172C10.1463 17.9688 9.35938 18.7732 9.35938 19.7656C9.35938 20.758 10.1463 21.5625 11.1172 21.5625H29.2227C30.1935 21.5625 30.9805 20.758 30.9805 19.7656Z" fill="#FF9966"/>
<path d="M11.1172 25.1562C10.1463 25.1562 9.35938 25.9607 9.35938 26.9531C9.35938 27.9455 10.1463 28.75 11.1172 28.75H22.1133C23.0841 28.75 23.8711 27.9455 23.8711 26.9531C23.8711 25.9607 23.0841 25.1562 22.1133 25.1562H11.1172Z" fill="#FF9966"/>
<path d="M15.2461 42.4062H9.36719C7.42867 42.4062 5.85156 40.7941 5.85156 38.8125V7.1875C5.85156 5.20591 7.42867 3.59375 9.36719 3.59375H30.9785C32.917 3.59375 34.4941 5.20591 34.4941 7.1875V18.2383C34.4941 19.2307 35.2811 20.0352 36.252 20.0352C37.2228 20.0352 38.0098 19.2307 38.0098 18.2383V7.1875C38.0098 3.22431 34.8556 0 30.9785 0H9.36719C5.49016 0 2.33594 3.22431 2.33594 7.1875V38.8125C2.33594 42.7757 5.49016 46 9.36719 46H15.2461C16.2169 46 17.0039 45.1955 17.0039 44.2031C17.0039 43.2107 16.2169 42.4062 15.2461 42.4062Z" fill="#FF9966"/>
<path d="M41.1235 26.016C39.0674 23.9142 35.7219 23.9141 33.6671 26.0146L24.0164 35.8579C23.8115 36.0669 23.6603 36.3244 23.5761 36.6076L21.4744 43.6805C21.288 44.3077 21.4504 44.9886 21.8981 45.4577C22.2335 45.809 22.6891 45.9998 23.1564 45.9998C23.3128 45.9998 23.4706 45.9784 23.6256 45.9345L30.7206 43.9255C31.0125 43.8428 31.2787 43.6844 31.4931 43.4656L41.1236 33.6396C43.1797 31.5378 43.1797 28.118 41.1235 26.016ZM29.3366 40.5883L25.7672 41.5991L26.8118 38.0836L33.3235 31.4419L35.8099 33.9835L29.3366 40.5883ZM38.6389 31.0974L38.2983 31.4448L35.8123 28.9036L36.1518 28.5573C36.8371 27.8567 37.9523 27.8567 38.6377 28.5573C39.323 29.2579 39.323 30.3979 38.6389 31.0974Z" fill="#FF9966"/>
<path d="M29.2227 10.7812H11.1172C10.1463 10.7812 9.35938 11.5857 9.35938 12.5781C9.35938 13.5705 10.1463 14.375 11.1172 14.375H29.2227C30.1935 14.375 30.9805 13.5705 30.9805 12.5781C30.9805 11.5857 30.1935 10.7812 29.2227 10.7812Z" fill="#FF9966"/>
</svg>
