<svg width="49" height="47" viewBox="0 0 49 47" fill="none" xmlns="http://www.w3.org/2000/svg">
<g clip-path="url(#clip0_2082_42351)">
<path d="M49 23.5C49 29.7326 46.4188 35.7099 41.8241 40.117C37.2295 44.5241 30.9978 47 24.5 47C18.0022 47 11.7705 44.5241 7.17588 40.117C2.58124 35.7099 0 29.7326 0 23.5C0 22.9806 0.215104 22.4825 0.59799 22.1152C0.980877 21.748 1.50018 21.5417 2.04167 21.5417C2.58315 21.5417 3.10246 21.748 3.48534 22.1152C3.86823 22.4825 4.08333 22.9806 4.08333 23.5C4.08333 27.3732 5.28075 31.1595 7.52416 34.3799C9.76757 37.6004 12.9562 40.1104 16.6869 41.5926C20.4175 43.0749 24.5226 43.4627 28.4831 42.707C32.4435 41.9514 36.0814 40.0863 38.9368 37.3475C41.7921 34.6087 43.7366 31.1193 44.5244 27.3205C45.3122 23.5217 44.9078 19.5842 43.3625 16.0058C41.8173 12.4274 39.2004 9.3689 35.8429 7.21705C32.4854 5.06521 28.538 3.91667 24.5 3.91667C23.9585 3.91667 23.4392 3.71034 23.0563 3.34308C22.6734 2.97583 22.4583 2.47772 22.4583 1.95833C22.4583 1.43895 22.6734 0.940841 23.0563 0.573583C23.4392 0.206324 23.9585 0 24.5 0C30.9956 0.00673878 37.2232 2.48479 41.8164 6.89043C46.4095 11.2961 48.993 17.2695 49 23.5ZM20.9822 21.5417H16.3333C15.7919 21.5417 15.2725 21.748 14.8897 22.1152C14.5068 22.4825 14.2917 22.9806 14.2917 23.5C14.2917 24.0194 14.5068 24.5175 14.8897 24.8848C15.2725 25.252 15.7919 25.4583 16.3333 25.4583H20.9822C21.294 25.9777 21.7263 26.4213 22.2455 26.7547C22.7648 27.0882 23.357 27.3025 23.9765 27.381C24.596 27.4596 25.226 27.4004 25.8177 27.2079C26.4095 27.0154 26.9471 26.6948 27.3889 26.271C27.8308 25.8472 28.165 25.3315 28.3657 24.7639C28.5663 24.1963 28.6281 23.5921 28.5462 22.9979C28.4643 22.4037 28.2409 21.8356 27.8932 21.3375C27.5456 20.8395 27.0832 20.4249 26.5417 20.1258V13.7083C26.5417 13.189 26.3266 12.6908 25.9437 12.3236C25.5608 11.9563 25.0415 11.75 24.5 11.75C23.9585 11.75 23.4392 11.9563 23.0563 12.3236C22.6734 12.6908 22.4583 13.189 22.4583 13.7083V20.1258C21.8467 20.4671 21.338 20.955 20.9822 21.5417ZM3.73013 17.202C4.13393 17.202 4.52866 17.0871 4.86441 16.872C5.20016 16.6568 5.46185 16.3509 5.61638 15.9931C5.77091 15.6352 5.81134 15.2415 5.73256 14.8616C5.65378 14.4817 5.45933 14.1328 5.1738 13.8589C4.88827 13.585 4.52448 13.3985 4.12843 13.323C3.73239 13.2474 3.32188 13.2862 2.94881 13.4344C2.57575 13.5826 2.25688 13.8336 2.03254 14.1557C1.8082 14.4777 1.68846 14.8563 1.68846 15.2437C1.68846 15.763 1.90356 16.2612 2.28645 16.6284C2.66934 16.9957 3.18864 17.202 3.73013 17.202ZM8.61788 10.197C9.02168 10.197 9.41641 10.0822 9.75216 9.867C10.0879 9.65182 10.3496 9.34597 10.5041 8.98813C10.6587 8.63029 10.6991 8.23654 10.6203 7.85666C10.5415 7.47678 10.3471 7.12784 10.0616 6.85396C9.77602 6.58008 9.41223 6.39357 9.01618 6.318C8.62014 6.24244 8.20963 6.28122 7.83656 6.42944C7.4635 6.57767 7.14463 6.82867 6.92029 7.15072C6.69595 7.47276 6.57621 7.85139 6.57621 8.23871C6.57621 8.75809 6.79131 9.2562 7.1742 9.62346C7.55709 9.99072 8.07639 10.197 8.61788 10.197ZM15.8821 5.56363C16.2859 5.56363 16.6807 5.44877 17.0164 5.23359C17.3522 5.0184 17.6139 4.71255 17.7684 4.35471C17.9229 3.99687 17.9633 3.60312 17.8846 3.22324C17.8058 2.84336 17.6113 2.49442 17.3258 2.22054C17.0403 1.94666 16.6765 1.76015 16.2804 1.68459C15.8844 1.60902 15.4739 1.64781 15.1008 1.79603C14.7277 1.94425 14.4089 2.19525 14.1845 2.5173C13.9602 2.83935 13.8405 3.21797 13.8405 3.60529C13.8405 4.12467 14.0556 4.62278 14.4384 4.99004C14.8213 5.3573 15.3406 5.56363 15.8821 5.56363Z" fill="#FF9966"/>
</g>
<defs>
<clipPath id="clip0_2082_42351">
<rect width="49" height="47" fill="white"/>
</clipPath>
</defs>
</svg>
