<svg width="16" height="15" viewBox="0 0 16 15" fill="none" xmlns="http://www.w3.org/2000/svg">
<path d="M0.96875 2.64425H8.10562C8.32071 3.62332 9.19505 4.35835 10.2378 4.35835C11.2805 4.35835 12.1549 3.62335 12.37 2.64425H15.0312C15.2901 2.64425 15.5 2.43437 15.5 2.1755C15.5 1.91663 15.2901 1.70675 15.0312 1.70675H12.3697C12.1542 0.728174 11.2787 -0.00732422 10.2378 -0.00732422C9.19634 -0.00732422 8.32121 0.728057 8.10579 1.70675H0.96875C0.709883 1.70675 0.5 1.91663 0.5 2.1755C0.5 2.43437 0.709883 2.64425 0.96875 2.64425ZM8.99249 2.17673C8.99249 2.17506 8.99252 2.17336 8.99252 2.17169C8.99457 1.48711 9.55317 0.930205 10.2378 0.930205C10.9214 0.930205 11.4801 1.48635 11.483 2.17061L11.4831 2.17749C11.482 2.86324 10.9238 3.42088 10.2378 3.42088C9.55206 3.42088 8.99401 2.8638 8.99246 2.17846L8.99249 2.17673ZM15.0312 12.3556H12.3697C12.1542 11.3771 11.2787 10.6415 10.2378 10.6415C9.19634 10.6415 8.32121 11.3769 8.10579 12.3556H0.96875C0.709883 12.3556 0.5 12.5655 0.5 12.8244C0.5 13.0833 0.709883 13.2931 0.96875 13.2931H8.10562C8.32071 14.2722 9.19505 15.0072 10.2378 15.0072C11.2805 15.0072 12.1549 14.2722 12.37 13.2931H15.0312C15.2901 13.2931 15.5 13.0833 15.5 12.8244C15.5 12.5655 15.2901 12.3556 15.0312 12.3556ZM10.2378 14.0697C9.55206 14.0697 8.99401 13.5126 8.99246 12.8273L8.99249 12.8256C8.99249 12.8239 8.99252 12.8222 8.99252 12.8205C8.99457 12.136 9.55317 11.579 10.2378 11.579C10.9214 11.579 11.4801 12.1352 11.483 12.8194L11.4831 12.8263C11.4821 13.5121 10.9239 14.0697 10.2378 14.0697ZM15.0312 7.03119H7.89438C7.67929 6.05212 6.80495 5.31712 5.76222 5.31712C4.71948 5.31712 3.84515 6.05212 3.63005 7.03119H0.96875C0.709883 7.03119 0.5 7.24107 0.5 7.49994C0.5 7.75884 0.709883 7.96869 0.96875 7.96869H3.63028C3.84582 8.94724 4.72133 9.68276 5.76222 9.68276C6.80366 9.68276 7.67879 8.94735 7.89421 7.96869H15.0312C15.2901 7.96869 15.5 7.75884 15.5 7.49994C15.5 7.24107 15.2901 7.03119 15.0312 7.03119ZM7.00751 7.49871C7.00751 7.50041 7.00748 7.50208 7.00748 7.50375C7.00543 8.18833 6.44683 8.74523 5.76222 8.74523C5.07857 8.74523 4.51994 8.18909 4.51698 7.50486L4.51689 7.49801C4.51792 6.81217 5.07617 6.25462 5.76222 6.25462C6.44794 6.25462 7.00599 6.81167 7.00754 7.49704L7.00751 7.49871Z" fill="white"/>
</svg>
