<svg width="60" height="48" viewBox="0 0 60 48" fill="none" xmlns="http://www.w3.org/2000/svg">
<path d="M7.525 1C3.94712 1 1 3.92172 1 7.46875V40.5312C1 44.0783 3.94712 47 7.525 47H52.475C56.0529 47 59 44.0783 59 40.5312V14.6562C59 11.1092 56.0529 8.1875 52.475 8.1875H30.0623L23.5798 2.83337C22.1469 1.64991 20.3418 1 18.4765 1H7.525ZM7.525 5.3125H18.4765C19.3255 5.3125 20.1437 5.6077 20.7959 6.14636L25.8766 10.3438L20.7959 14.5411C20.1437 15.0798 19.3255 15.375 18.4765 15.375H5.35V7.46875C5.35 6.25191 6.29758 5.3125 7.525 5.3125ZM30.0623 12.5H52.475C53.7024 12.5 54.65 13.4394 54.65 14.6562V40.5312C54.65 41.7481 53.7024 42.6875 52.475 42.6875H7.525C6.29758 42.6875 5.35 41.7481 5.35 40.5312V19.6875H18.4765C20.3418 19.6875 22.1469 19.0376 23.5798 17.8541L30.0623 12.5Z" fill="#FF9966" stroke="#F8F8ED" stroke-width="1.2"/>
</svg>
