<svg width="42" height="42" viewBox="0 0 42 42" fill="none" xmlns="http://www.w3.org/2000/svg">
<path d="M21.0003 39.8878C20.7546 39.8862 20.5125 39.8288 20.2923 39.7198C-0.827727 28.4998 0.168273 14.6398 0.360273 13.0798C0.378124 10.6522 1.19393 8.29786 2.68193 6.37967C4.16994 4.46148 6.24754 3.08594 8.59449 2.46509C10.9414 1.84424 13.4274 2.01255 15.6693 2.94406C17.9111 3.87557 19.7844 5.51858 21.0003 7.61982C22.2247 5.51313 24.1097 3.86902 26.3632 2.94216C28.6167 2.0153 31.113 1.85744 33.4653 2.49302C35.8177 3.12859 37.8947 4.52214 39.3748 6.45779C40.8549 8.39344 41.6554 10.7631 41.6523 13.1998C41.8683 15.2278 42.4443 28.7998 21.7083 39.7558C21.4857 39.854 21.2433 39.8992 21.0003 39.8878ZM11.4003 5.11182C9.26353 5.1245 7.21863 5.98222 5.7122 7.49764C4.20577 9.01307 3.36024 11.063 3.36027 13.1998C3.36617 13.2717 3.36617 13.3439 3.36027 13.4158C3.36027 13.9318 1.83627 26.2078 21.0243 36.6958C40.0563 26.2918 38.7483 13.8958 38.6883 13.4278C38.6827 13.3639 38.6827 13.2997 38.6883 13.2358V13.0798C38.6724 10.9379 37.8062 8.89009 36.2804 7.3868C34.7546 5.88351 32.6942 5.04791 30.5523 5.06382C28.4104 5.07973 26.3625 5.94586 24.8593 7.47165C23.356 8.99745 22.5204 11.0579 22.5363 13.1998C22.5363 13.5976 22.3782 13.9792 22.0969 14.2605C21.8156 14.5418 21.4341 14.6998 21.0363 14.6998C20.6384 14.6998 20.2569 14.5418 19.9756 14.2605C19.6943 13.9792 19.5363 13.5976 19.5363 13.1998C19.5363 12.1367 19.3267 11.084 18.9195 10.1019C18.5123 9.11984 17.9154 8.22769 17.1631 7.47649C16.4108 6.7253 15.5178 6.12979 14.5351 5.72403C13.5524 5.31828 12.4994 5.11024 11.4363 5.11182H11.4003Z" fill="#FF9966"/>
</svg>
