<svg width="34" height="34" viewBox="0 0 34 34" fill="none" xmlns="http://www.w3.org/2000/svg">
<g clip-path="url(#clip0_2026_72088)">
<path d="M31.3638 17.6244V2.14176C31.3638 1.58941 30.916 1.1416 30.3637 1.1416H3.56723C3.01487 1.1416 2.56707 1.58941 2.56707 2.14176V18.8587C2.08459 18.9289 1.61291 19.1162 1.19565 19.426C-0.119764 20.3588 -0.430881 22.4462 0.670963 23.7335L5.17589 29.1948C7.96447 32.4585 10.9267 32.8584 15.3305 32.8584C19.1096 32.8584 20.7991 32.875 24.0927 32.1246L27.2997 31.3575C27.8197 32.0837 28.6453 32.5541 29.5733 32.5541H31.1532C32.7229 32.5541 34 31.2088 34 29.5551V20.6144C34 19.0354 32.8355 17.7384 31.3638 17.6244ZM26.8683 19.6818L25.5357 19.0049C23.3446 17.899 20.8113 17.858 18.5856 18.8928C17.9784 19.1316 16.654 19.933 15.967 19.9062H11.3428C9.80896 19.9062 8.56103 21.154 8.56103 22.6879V23.4173C8.55243 23.4082 8.54343 23.3996 8.53496 23.3904L5.23276 19.8061C5.03293 19.5892 4.80843 19.4077 4.56746 19.262V9.33919H12.7523V13.0055C12.7523 13.5579 13.2001 14.0057 13.7525 14.0057H20.0635C20.6159 14.0057 21.0637 13.5579 21.0637 13.0055V9.33919H29.3636V17.6243C28.195 17.7146 27.2206 18.5506 26.8683 19.6818ZM14.7526 9.33919H19.0633V12.0053H14.7526V9.33919ZM29.3635 7.33887H21.0637V3.14192H29.3636V7.33887H29.3635ZM19.0634 3.14192V7.33893H14.7526V3.14192H19.0634ZM12.7522 3.14192V7.33893H4.56739V3.14192H12.7522ZM23.6284 30.1788C20.586 30.8756 18.7536 30.8474 15.3664 30.8474C11.2324 30.8474 9.23494 30.7806 6.71907 27.9219L2.21414 22.4606C1.43055 21.4402 2.84985 20.2357 3.76159 21.1613L7.06379 24.7457C7.93653 25.6666 9.03477 26.1734 10.3884 26.2032H19.5437C20.0961 26.2032 20.5439 25.7554 20.5439 25.2031C20.5439 24.6507 20.0961 24.2029 19.5437 24.2029H10.5613V22.6878C10.5613 22.2569 10.9118 21.9063 11.3427 21.9063H15.967C17.0087 21.981 18.5124 21.1111 19.4289 20.7065C21.0958 19.9315 22.9932 19.9622 24.6321 20.7894L26.7267 21.8533V29.4377L23.6284 30.1788ZM31.9997 29.555C31.9997 30.1057 31.62 30.5537 31.1533 30.5537H29.5734C29.1067 30.5537 28.727 30.1057 28.727 29.555V20.6144C28.727 20.0637 29.1067 19.6156 29.5734 19.6156H31.1533C31.62 19.6156 31.9997 20.0636 31.9997 20.6144V29.555Z" fill="#3DB845"/>
</g>
<defs>
<clipPath id="clip0_2026_72088">
<rect width="34" height="34" fill="white"/>
</clipPath>
</defs>
</svg>
