<svg width="30" height="30" viewBox="0 0 30 30" fill="none" xmlns="http://www.w3.org/2000/svg">
<g clip-path="url(#clip0_2026_72091)">
<path d="M28.2029 24.1548C29.3811 22.5507 30 20.6867 30 18.7221C30 15.5773 28.3691 12.6576 25.6176 10.8355C25.3639 8.03366 24.0556 5.4352 21.8682 3.43312C19.4494 1.21927 16.2403 0 12.832 0C9.42383 0 6.21477 1.21927 3.79591 3.43318C1.3481 5.6735 3.90719e-05 8.66049 3.90719e-05 11.8439C3.90719e-05 14.2924 0.789354 16.6138 2.28982 18.6L0.0854686 24.0529C-0.0933006 24.4951 0.01375 25.0016 0.35623 25.3335C0.579472 25.5499 0.873494 25.6641 1.1722 25.6641C1.33176 25.664 1.49265 25.6314 1.64465 25.5645L7.9318 22.793C8.72112 23.0947 9.53428 23.3204 10.3662 23.4698C11.2183 24.8712 12.4338 26.0581 13.9114 26.922C15.561 27.8863 17.4657 28.4017 19.4249 28.4165C19.4537 28.4186 19.4824 28.4209 19.5118 28.4209C20.8663 28.4209 22.1787 28.1869 23.4202 27.7248L28.3554 29.9004C28.5074 29.9674 28.6683 30 28.8279 30C29.1265 30 29.4207 29.8859 29.6438 29.6694C29.9863 29.3374 30.0934 28.831 29.9146 28.3888L28.2029 24.1548ZM25.7747 24.4017L26.66 26.5917L23.9157 25.3819C23.619 25.2512 23.2814 25.2491 22.9831 25.3764C21.9075 25.8353 20.7557 26.0705 19.5592 26.0766C19.5434 26.0759 19.5278 26.0742 19.5117 26.0742C17.2023 26.0742 15.0205 25.1717 13.4963 23.6705C15.4289 23.5779 17.3232 23.0844 19.0121 22.2267C19.5892 21.9336 19.8193 21.2282 19.5263 20.6511C19.2332 20.0741 18.5278 19.844 17.9507 20.137C16.396 20.9267 14.6259 21.344 12.832 21.344C11.2732 21.344 9.77246 21.041 8.37166 20.4433C8.07348 20.316 7.73575 20.3179 7.43909 20.4488L3.33999 22.2558L4.72011 18.8418C4.88376 18.437 4.80882 17.9746 4.52552 17.6424C3.09824 15.9679 2.34378 13.9628 2.34378 11.8439C2.34378 6.60544 7.0488 2.34375 12.832 2.34375C18.6153 2.34375 23.3203 6.60544 23.3203 11.8439C23.3203 13.5358 22.8229 15.1968 21.8817 16.6473C21.5294 17.1903 21.684 17.9159 22.227 18.2682C22.7698 18.6206 23.4956 18.4659 23.8479 17.923C24.6831 16.6357 25.2411 15.2145 25.4992 13.7384C26.872 15.0828 27.6562 16.8535 27.6562 18.7221C27.6562 20.3584 27.0729 21.9076 25.9693 23.2023C25.686 23.5346 25.6111 23.9969 25.7747 24.4017ZM13.9453 17.8711C13.9453 18.5183 13.4207 19.0429 12.7735 19.0429C12.1262 19.0429 11.6016 18.5183 11.6016 17.8711C11.6016 17.2238 12.1262 16.6992 12.7735 16.6992C13.4207 16.6992 13.9453 17.2238 13.9453 17.8711ZM17.2256 9.09092C17.2263 9.10721 17.2266 9.1235 17.2266 9.13996C17.227 10.904 16.1789 12.4916 14.5563 13.1842C14.2206 13.3276 14.0036 13.6657 14.0036 14.0456V14.1211C14.0036 14.7683 13.4789 15.2929 12.8317 15.2929C12.1845 15.2929 11.6598 14.7683 11.6598 14.1211V14.0457C11.6598 12.7255 12.4355 11.5413 13.6361 11.0288C14.3834 10.7097 14.8697 9.9843 14.8826 9.17412C14.8823 9.16287 14.8821 9.15156 14.8821 9.14025C14.8821 8.00969 13.9623 7.08989 12.8317 7.08989C11.7011 7.08983 10.7813 8.00963 10.7813 9.1402C10.7813 9.78742 10.2566 10.3121 9.6094 10.3121C8.96217 10.3121 8.43752 9.78742 8.43752 9.1402C8.43752 6.71729 10.4087 4.74608 12.8317 4.74608C15.2382 4.74608 17.1991 6.69063 17.2256 9.09092Z" fill="#3DB845"/>
</g>
<defs>
<clipPath id="clip0_2026_72091">
<rect width="30" height="30" fill="white"/>
</clipPath>
</defs>
</svg>
