<svg width="32" height="32" viewBox="0 0 32 32" fill="none" xmlns="http://www.w3.org/2000/svg">
<path d="M24.1664 19.0254C21.9422 19.0254 20.1328 20.8348 20.1328 23.059C20.1328 25.2832 21.9422 27.0926 24.1664 27.0926C26.391 27.0926 28.2001 25.2832 28.2001 23.059C28.2001 20.8348 26.3906 19.0254 24.1664 19.0254ZM24.1664 25.0758C23.0542 25.0758 22.1496 24.1713 22.1496 23.059C22.1496 21.9468 23.0542 21.0422 24.1664 21.0422C25.2787 21.0422 26.1833 21.9468 26.1833 23.059C26.1833 24.1713 25.2787 25.0758 24.1664 25.0758Z" fill="#3DB845"/>
<path d="M10.3852 19.0254C8.161 19.0254 6.35156 20.8348 6.35156 23.059C6.35156 25.2832 8.161 27.0926 10.3852 27.0926C12.6094 27.0926 14.4188 25.2832 14.4188 23.059C14.4188 20.8348 12.6094 19.0254 10.3852 19.0254ZM10.3852 25.0758C9.27294 25.0758 8.36837 24.1713 8.36837 23.059C8.36837 21.9468 9.27294 21.0422 10.3852 21.0422C11.4971 21.0422 12.402 21.9468 12.402 23.059C12.402 24.1713 11.4974 25.0758 10.3852 25.0758Z" fill="#3DB845"/>
<path d="M26.884 7.47963C26.7126 7.13913 26.364 6.92432 25.9828 6.92432H20.6719V8.94113H25.3609L28.1068 14.4026L29.9092 13.4964L26.884 7.47963Z" fill="#3DB845"/>
<path d="M21.142 22.084H13.5117V24.1008H21.142V22.084Z" fill="#3DB845"/>
<path d="M7.3596 22.084H3.86384C3.30684 22.084 2.85547 22.5354 2.85547 23.0924C2.85547 23.6494 3.30691 24.1007 3.86384 24.1007H7.35966C7.91666 24.1007 8.36804 23.6493 8.36804 23.0924C8.36804 22.5354 7.9166 22.084 7.3596 22.084Z" fill="#3DB845"/>
<path d="M31.7865 15.9195L29.803 13.3648C29.6125 13.1188 29.3183 12.9749 29.0067 12.9749H21.679V5.91609C21.679 5.35909 21.2275 4.90771 20.6706 4.90771H3.86384C3.30684 4.90771 2.85547 5.35915 2.85547 5.91609C2.85547 6.47303 3.30691 6.92447 3.86384 6.92447H19.6622V13.9833C19.6622 14.5403 20.1136 14.9917 20.6705 14.9917H28.5129L29.9815 16.8834V22.0841H27.1915C26.6345 22.0841 26.1832 22.5355 26.1832 23.0925C26.1832 23.6495 26.6346 24.1008 27.1915 24.1008H30.9898C31.5468 24.1008 31.9982 23.6494 31.9983 23.0925V16.538C31.9983 16.3141 31.9237 16.0963 31.7865 15.9195Z" fill="#3DB845"/>
<path d="M7.2955 16.9751H2.65681C2.09981 16.9751 1.64844 17.4265 1.64844 17.9835C1.64844 18.5405 2.09988 18.9918 2.65681 18.9918H7.29544C7.85244 18.9918 8.30382 18.5404 8.30382 17.9835C8.30388 17.4265 7.85244 16.9751 7.2955 16.9751Z" fill="#3DB845"/>
<path d="M9.61344 13.0083H1.00838C0.451438 13.0083 0 13.4597 0 14.0167C0 14.5737 0.451438 15.0251 1.00838 15.0251H9.61344C10.1704 15.0251 10.6218 14.5737 10.6218 14.0167C10.6218 13.4598 10.1704 13.0083 9.61344 13.0083Z" fill="#3DB845"/>
<path d="M11.2619 9.04199H2.65681C2.09981 9.04199 1.64844 9.49343 1.64844 10.0504C1.64844 10.6074 2.09988 11.0587 2.65681 11.0587H11.2619C11.8189 11.0587 12.2703 10.6073 12.2703 10.0504C12.2703 9.49343 11.8189 9.04199 11.2619 9.04199Z" fill="#3DB845"/>
</svg>
