<svg width="24" height="24" viewBox="0 0 24 24" fill="none" xmlns="http://www.w3.org/2000/svg">
<g clip-path="url(#clip0_2026_72083)">
<path d="M18.9843 12.0469C17.4335 12.0469 16.1718 13.3086 16.1718 14.8594C16.1718 16.4102 17.4335 17.6719 18.9843 17.6719H22.9687C22.9846 17.6719 23.0001 17.6703 23.0158 17.6695C23.0314 17.6703 23.0467 17.6719 23.0625 17.6719C23.5802 17.6719 24 17.2522 24 16.7344V9.37502C24 8.12693 23.3865 7.01997 22.4458 6.33799L19.2564 1.10581C19.1264 0.892438 18.9166 0.739814 18.6735 0.681876C18.4304 0.623845 18.1742 0.66533 17.9619 0.797048L15.6098 2.25561L14.5491 0.46058C14.4216 0.244768 14.213 0.0890493 13.9698 0.028112C13.7268 -0.0328254 13.4693 0.00622136 13.2551 0.136346L4.22385 5.62502H2.81249C2.30339 5.62502 1.88775 5.21712 1.87528 4.71096C1.88775 4.20481 2.30339 3.7969 2.81249 3.7969H4.54687C5.06465 3.7969 5.48436 3.37718 5.48436 2.8594C5.48436 2.34162 5.06465 1.92191 4.54687 1.92191H2.81249C1.48603 1.92191 0.371202 2.84506 0.0764061 4.0826C0.0273749 4.19632 0 4.32148 0 4.45315V4.68752V4.7344V20.25C0 22.3177 1.68225 24 3.74999 24H20.25C21.8667 24 23.2965 22.9701 23.8078 21.4373C23.9717 20.9461 23.7063 20.4151 23.2152 20.2513C22.7241 20.0875 22.193 20.3528 22.0292 20.8439C21.7736 21.6102 21.0586 22.125 20.25 22.125H3.74999C2.71612 22.125 1.875 21.2839 1.875 20.25V7.33919C2.16839 7.44325 2.4839 7.50002 2.81249 7.50002H20.25C21.2838 7.50002 22.125 8.34114 22.125 9.37502V12.0469H18.9843ZM22.125 15.7969H18.9843C18.4674 15.7969 18.0468 15.3764 18.0468 14.8594C18.0468 14.3424 18.4674 13.9219 18.9843 13.9219H22.125V15.7969ZM7.83411 5.62507L13.4178 2.23165L14.4161 3.92107C14.4353 3.96725 14.4573 4.01276 14.4845 4.05664C14.5049 4.08949 14.5275 4.1201 14.551 4.14954L15.4229 5.62507H7.83411ZM17.6008 5.62502L16.5639 3.87021L18.1472 2.88842L19.8153 5.62502H17.6008Z" fill="#3DB845"/>
</g>
<defs>
<clipPath id="clip0_2026_72083">
<rect width="24" height="24" fill="white"/>
</clipPath>
</defs>
</svg>
