<svg width="22" height="22" viewBox="0 0 22 22" fill="none" xmlns="http://www.w3.org/2000/svg">
<path d="M9.75705 12.6093V12.1192C9.75705 11.6954 9.84599 11.3267 10.0239 11.0132C10.2017 10.6998 10.5271 10.3664 11 10.0132C11.4555 9.68212 11.7549 9.4128 11.898 9.2053C12.0456 8.99779 12.1193 8.766 12.1193 8.50993C12.1193 8.22296 12.0152 8.00442 11.8069 7.8543C11.5987 7.70419 11.308 7.62914 10.9349 7.62914C10.2842 7.62914 9.5423 7.84547 8.70933 8.27815L8 6.82781C8.96746 6.27594 9.99349 6 11.0781 6C11.9718 6 12.6811 6.21854 13.2061 6.65563C13.7354 7.09272 14 7.6755 14 8.40397C14 8.88962 13.8915 9.30905 13.6746 9.66225C13.4577 10.0155 13.0456 10.4128 12.4382 10.8543C12.0217 11.1678 11.7571 11.4062 11.6443 11.5695C11.5358 11.7329 11.4816 11.947 11.4816 12.2119V12.6093H9.75705ZM9.54881 14.8742C9.54881 14.5033 9.64642 14.223 9.84165 14.0331C10.0369 13.8433 10.321 13.7483 10.6941 13.7483C11.0542 13.7483 11.3319 13.8455 11.5271 14.0397C11.7267 14.234 11.8265 14.5121 11.8265 14.8742C11.8265 15.223 11.7267 15.4989 11.5271 15.702C11.3275 15.9007 11.0499 16 10.6941 16C10.3297 16 10.0477 15.9029 9.84816 15.7086C9.64859 15.5099 9.54881 15.2318 9.54881 14.8742Z" fill="#616161"/>
<circle cx="11" cy="11" r="10" stroke="#E6E6E6" stroke-width="2"/>
</svg>
