<svg width="24" height="24" viewBox="0 0 24 24" fill="none" xmlns="http://www.w3.org/2000/svg">
<path d="M21.1479 2.86001C20.7658 2.47057 20.2813 2.19723 19.7504 2.07158C19.2195 1.94594 18.6639 1.97313 18.1479 2.15001L3.99785 6.88001C3.42717 7.06681 2.92854 7.42616 2.57081 7.90845C2.21307 8.39073 2.01387 8.97218 2.0007 9.57251C1.98753 10.1728 2.16104 10.7625 2.49728 11.26C2.83352 11.7575 3.31591 12.1384 3.87785 12.35L9.11785 14.35C9.23717 14.3956 9.34581 14.4654 9.437 14.5548C9.52818 14.6443 9.59996 14.7516 9.64785 14.87L11.6479 20.12C11.8514 20.674 12.2209 21.1518 12.7058 21.4882C13.1908 21.8246 13.7676 22.0033 14.3579 22H14.4279C15.0289 21.9891 15.6114 21.7903 16.0938 21.4317C16.5762 21.073 16.9343 20.5724 17.1179 20L21.8479 5.83001C22.0199 5.31895 22.0455 4.76995 21.9218 4.2451C21.7981 3.72024 21.53 3.24046 21.1479 2.86001ZM19.9979 5.20001L15.2179 19.38C15.1623 19.5595 15.0509 19.7165 14.8997 19.828C14.7486 19.9396 14.5657 19.9999 14.3779 20C14.1911 20.0031 14.0078 19.9492 13.8524 19.8456C13.697 19.742 13.5769 19.5936 13.5079 19.42L11.5079 14.17C11.3629 13.7885 11.1392 13.4418 10.8515 13.1524C10.5638 12.863 10.2185 12.6373 9.83785 12.49L4.58785 10.49C4.41074 10.4251 4.2585 10.3062 4.15264 10.1501C4.04677 9.99399 3.99262 9.80856 3.99785 9.62001C3.998 9.43215 4.05827 9.24928 4.16983 9.09813C4.28138 8.94699 4.43838 8.83551 4.61785 8.78001L18.7979 4.05001C18.9607 3.98366 19.1392 3.96588 19.3119 3.99883C19.4846 4.03179 19.644 4.11406 19.7709 4.2357C19.8979 4.35734 19.9868 4.51314 20.0271 4.68427C20.0674 4.8554 20.0572 5.03453 19.9979 5.20001Z" fill="#3E3E3E"/>
</svg>
