<svg width="24" height="24" viewBox="0 0 24 24" fill="none" xmlns="http://www.w3.org/2000/svg">
<path d="M23 12C23 14.9174 21.8411 17.7153 19.7782 19.7782C17.7153 21.8411 14.9174 23 12 23C9.08262 23 6.28473 21.8411 4.22183 19.7782C2.15893 17.7153 1 14.9174 1 12C1 11.7569 1.09658 11.5237 1.26849 11.3518C1.44039 11.1799 1.67355 11.0833 1.91667 11.0833C2.15978 11.0833 2.39294 11.1799 2.56485 11.3518C2.73676 11.5237 2.83333 11.7569 2.83333 12C2.83333 13.813 3.37095 15.5853 4.3782 17.0927C5.38544 18.6002 6.81708 19.7751 8.49207 20.4689C10.1671 21.1627 12.0102 21.3442 13.7883 20.9905C15.5665 20.6368 17.1998 19.7638 18.4818 18.4818C19.7638 17.1998 20.6368 15.5665 20.9905 13.7883C21.3442 12.0102 21.1627 10.1671 20.4689 8.49207C19.7751 6.81708 18.6002 5.38544 17.0927 4.3782C15.5853 3.37095 13.813 2.83333 12 2.83333C11.7569 2.83333 11.5237 2.73676 11.3518 2.56485C11.1799 2.39294 11.0833 2.15978 11.0833 1.91667C11.0833 1.67355 11.1799 1.44039 11.3518 1.26849C11.5237 1.09658 11.7569 1 12 1C14.9164 1.00315 17.7125 2.16309 19.7747 4.22531C21.8369 6.28753 22.9968 9.08359 23 12ZM10.4206 11.0833H8.33333C8.09022 11.0833 7.85706 11.1799 7.68515 11.3518C7.51324 11.5237 7.41667 11.7569 7.41667 12C7.41667 12.2431 7.51324 12.4763 7.68515 12.6482C7.85706 12.8201 8.09022 12.9167 8.33333 12.9167H10.4206C10.5606 13.1598 10.7546 13.3674 10.9878 13.5235C11.2209 13.6796 11.4868 13.7799 11.765 13.8167C12.0431 13.8534 12.3259 13.8257 12.5916 13.7356C12.8573 13.6455 13.0987 13.4955 13.2971 13.2971C13.4955 13.0987 13.6455 12.8573 13.7356 12.5916C13.8257 12.3259 13.8534 12.0431 13.8167 11.765C13.7799 11.4868 13.6796 11.2209 13.5235 10.9878C13.3674 10.7546 13.1598 10.5606 12.9167 10.4206V7.41667C12.9167 7.17355 12.8201 6.94039 12.6482 6.76849C12.4763 6.59658 12.2431 6.5 12 6.5C11.7569 6.5 11.5237 6.59658 11.3518 6.76849C11.1799 6.94039 11.0833 7.17355 11.0833 7.41667V10.4206C10.8087 10.5803 10.5803 10.8087 10.4206 11.0833ZM2.67475 9.052C2.85605 9.052 3.03328 8.99824 3.18402 8.89751C3.33477 8.79679 3.45226 8.65363 3.52164 8.48613C3.59102 8.31863 3.60917 8.13432 3.5738 7.9565C3.53843 7.77868 3.45113 7.61535 3.32293 7.48715C3.19473 7.35895 3.0314 7.27165 2.85358 7.23628C2.67577 7.20091 2.49146 7.21906 2.32396 7.28844C2.15646 7.35782 2.01329 7.47532 1.91257 7.62606C1.81184 7.77681 1.75808 7.95403 1.75808 8.13533C1.75808 8.37845 1.85466 8.61161 2.02657 8.78351C2.19848 8.95542 2.43163 9.052 2.67475 9.052ZM4.86925 5.77308C5.05055 5.77308 5.22778 5.71932 5.37852 5.6186C5.52927 5.51787 5.64676 5.37471 5.71614 5.20721C5.78552 5.03971 5.80367 4.8554 5.7683 4.67758C5.73293 4.49977 5.64563 4.33643 5.51743 4.20824C5.38923 4.08004 5.2259 3.99273 5.04808 3.95736C4.87027 3.92199 4.68596 3.94015 4.51846 4.00953C4.35096 4.07891 4.20779 4.1964 4.10707 4.34714C4.00635 4.49789 3.95258 4.67512 3.95258 4.85642C3.95258 5.09953 4.04916 5.33269 4.22107 5.5046C4.39298 5.67651 4.62614 5.77308 4.86925 5.77308ZM8.13075 3.60425C8.31205 3.60425 8.48928 3.55049 8.64002 3.44976C8.79077 3.34904 8.90826 3.20588 8.97764 3.03838C9.04702 2.87088 9.06517 2.68657 9.0298 2.50875C8.99443 2.33093 8.90713 2.1676 8.77893 2.0394C8.65073 1.9112 8.4874 1.8239 8.30958 1.78853C8.13177 1.75316 7.94746 1.77131 7.77996 1.84069C7.61246 1.91007 7.46929 2.02757 7.36857 2.17831C7.26785 2.32906 7.21408 2.50628 7.21408 2.68758C7.21408 2.9307 7.31066 3.16386 7.48257 3.33576C7.65448 3.50767 7.88763 3.60425 8.13075 3.60425Z" fill="#374957" stroke="black" stroke-width="0.2"/>
</svg>
