<?xml version="1.0" encoding="UTF-8"?><svg xmlns="http://www.w3.org/2000/svg" viewBox="0 0 119.01 23.98"><defs><style>.d,.e{fill:#182f69;}.d,.f{fill-rule:evenodd;}.g,.f{fill:#49ad33;}</style></defs><g id="a"/><g id="b"><g id="c"><g><polygon class="f" points="69 8.23 69 15.75 66.75 14.19 66.75 9.79 69 8.23"/><polygon class="f" points="67.87 16.88 60.35 16.88 61.91 14.63 66.31 14.63 67.87 16.88"/><polygon class="d" points="72.74 20.62 76.1 14.14 69.61 17.49 66.26 23.98 72.74 20.62"/><polygon class="d" points="76.1 14.14 76.1 9.84 69.83 7.53 69.83 16.45 76.1 14.14"/><polygon class="d" points="76.1 9.84 72.74 3.36 66.26 0 69.61 6.5 76.1 9.84"/><polygon class="f" points="66.26 0 61.96 0 59.65 6.27 68.56 6.27 66.26 0"/><polygon class="f" points="61.96 0 55.48 3.36 52.12 9.84 58.61 6.49 61.96 0"/><polygon class="f" points="52.12 9.84 52.12 14.14 58.38 16.45 58.38 7.54 52.12 9.84"/><polygon class="d" points="52.12 14.14 55.48 20.62 61.96 23.98 58.61 17.49 52.12 14.14"/><polygon class="d" points="61.96 23.98 66.26 23.98 68.57 17.72 59.65 17.72 61.96 23.98"/><polygon class="d" points="59.22 15.75 59.22 8.23 61.47 9.79 61.47 14.19 59.22 15.75"/><polygon class="d" points="60.35 7.1 67.87 7.1 66.31 9.35 61.91 9.35 60.35 7.1"/><path class="e" d="M3.31,17.78H0V7.85c0-.91,.74-1.65,1.66-1.65H7.45v3.31H3.31v8.27Z"/><path class="e" d="M30.96,16.24v1.54h-3.31v-1.54h-2.37c-6.64,0-6.64-10.05,0-10.05h8.04c6.65,0,6.65,10.05,0,10.05h-2.36Zm-3.31-6.74h-2.37c-2.26,0-2.26,3.43,0,3.43h2.37v-3.43Zm3.31,3.43h2.36c2.26,0,2.26-3.43,0-3.43h-2.36v3.43Z"/><path class="g" d="M114.02,16.24h-2.36v1.54h-3.31V7.85c0-.91,.74-1.65,1.66-1.65h4.02c6.65,0,6.65,10.05,0,10.05m-2.36-3.31h2.36c2.26,0,2.26-3.43,0-3.43h-2.36v3.43Z"/><path class="g" d="M81.69,17.78h-3.31V7.85c0-1.67,2.19-2.27,3.06-.87l4.8,6.4,4.89-6.52c.95-1.27,2.97-.58,2.97,.99v9.93h-3.3v-4.98l-3.21,4.28c-.65,.9-1.99,.93-2.66,.03l-3.23-4.31v4.98Z"/><path class="g" d="M95.44,6.2h3.31v5.93l5.45-5.45c1.05-1.05,2.82-.28,2.82,1.17v9.93h-3.31v-5.93l-5.44,5.44c-1.02,1.04-2.83,.33-2.83-1.16V6.2Z"/><path class="e" d="M44.85,16.24h-2.36v1.54h-3.31V7.85c0-.91,.74-1.65,1.66-1.65h4.02c6.65,0,6.65,10.05,0,10.05m-2.36-3.31h2.36c2.26,0,2.26-3.43,0-3.43h-2.36v3.43Z"/><path class="e" d="M13.64,9.51c-1.37,0-2.48,1.11-2.48,2.48s1.11,2.48,2.48,2.48,2.48-1.11,2.48-2.48-1.11-2.48-2.48-2.48m0-3.31c3.2,0,5.79,2.59,5.79,5.79s-2.59,5.79-5.79,5.79-5.79-2.59-5.79-5.79,2.59-5.79,5.79-5.79"/></g><g><path class="e" d="M78.57,20.06h1.77c.26,0,.48,.06,.66,.17,.18,.11,.27,.29,.27,.53s-.09,.42-.27,.51c.18,.12,.27,.31,.27,.56s-.09,.41-.27,.53c-.18,.11-.4,.17-.66,.17h-1.77v-2.47Zm1.73,.39h-1.35v.62h1.37c.21,0,.36-.02,.44-.06s.12-.13,.12-.27c0-.19-.19-.29-.58-.29Zm.02,1h-1.37v.7h1.35c.39,0,.58-.1,.58-.29,0-.15-.05-.26-.14-.32-.09-.06-.23-.09-.42-.09Z"/><path class="e" d="M84.04,22.53h-.75c-.48,0-.83-.06-1.04-.2-.21-.13-.32-.38-.32-.76v-.56c0-.37,.11-.63,.32-.76,.21-.13,.56-.2,1.04-.2h.75c.23,0,.39,.06,.47,.18s.12,.28,.12,.47c0,.16-.06,.24-.19,.24-.05,0-.09-.02-.13-.05s-.06-.09-.06-.18c0-.11-.02-.18-.05-.22-.03-.04-.1-.06-.19-.06h-.72c-.4,0-.66,.03-.78,.1s-.18,.23-.18,.48v.53c0,.26,.06,.42,.18,.48s.38,.1,.78,.1h.72c.1,0,.16-.02,.19-.06s.05-.11,.05-.22c0-.08,.02-.14,.06-.18s.08-.05,.13-.05c.13,0,.19,.08,.19,.25,0,.2-.04,.35-.12,.47s-.24,.18-.47,.18Z"/><path class="e" d="M88.13,21.01v.26h-2.47v.29c0,.26,.06,.42,.18,.48s.38,.1,.78,.1h.83c.1,0,.16-.02,.19-.06s.05-.11,.05-.22c0-.08,.02-.14,.06-.18,.04-.04,.08-.05,.13-.05,.13,0,.19,.08,.19,.25,0,.2-.04,.35-.12,.47-.08,.12-.24,.18-.47,.18h-.86c-.48,0-.83-.06-1.04-.2-.21-.13-.32-.38-.32-.76v-.56c0-.37,.11-.63,.32-.76,.21-.13,.56-.2,1.04-.2h.16c.48,0,.82,.07,1.03,.2,.21,.13,.32,.38,.32,.76Zm-1.35-.57h-.16c-.38,0-.64,.03-.77,.08-.12,.05-.19,.17-.2,.36h2.09c-.01-.19-.09-.31-.21-.36-.13-.05-.38-.08-.75-.08Z"/><rect class="e" x="87.26" y="19.32" width=".46" height=".46"/><rect class="e" x="85.68" y="19.32" width=".46" height=".46"/><path class="e" d="M92.26,22.53h-.75c-.48,0-.83-.06-1.04-.2-.21-.13-.32-.38-.32-.76v-.56c0-.37,.11-.63,.32-.76,.21-.13,.56-.2,1.04-.2h.75c.23,0,.39,.06,.47,.18s.12,.28,.12,.47c0,.16-.06,.24-.19,.24-.05,0-.09-.02-.13-.05s-.06-.09-.06-.18c0-.11-.02-.18-.05-.22-.03-.04-.1-.06-.19-.06h-.72c-.4,0-.66,.03-.78,.1s-.18,.23-.18,.48v.53c0,.26,.06,.42,.18,.48s.38,.1,.78,.1h.72c.1,0,.16-.02,.19-.06s.05-.11,.05-.22c0-.08,.02-.14,.06-.18s.08-.05,.13-.05c.13,0,.19,.08,.19,.25,0,.2-.04,.35-.12,.47s-.24,.18-.47,.18Z"/><path class="e" d="M96.01,22.33c0,.16-.07,.24-.2,.24-.12,0-.19-.08-.19-.23v-1.89h-1.09c-.13,0-.22,.02-.26,.05s-.06,.1-.06,.2v1.14c0,.15-.02,.27-.05,.37-.04,.1-.09,.17-.16,.21-.07,.04-.14,.07-.21,.09-.07,.01-.15,.02-.25,.02-.16,0-.25-.07-.25-.2,0-.12,.08-.19,.25-.19,.1,0,.17-.02,.22-.05,.04-.03,.07-.1,.07-.2v-1.14c0-.26,.04-.44,.13-.54,.08-.1,.26-.16,.54-.16h1.52v2.27Z"/><path class="e" d="M98.25,22.53h-.16c-.48,0-.83-.06-1.04-.2-.21-.13-.32-.38-.32-.76v-.56c0-.37,.11-.63,.32-.76,.21-.13,.56-.2,1.04-.2h.16c.48,0,.82,.07,1.03,.2,.21,.13,.32,.38,.32,.76v.56c0,.38-.11,.63-.32,.76-.21,.13-.55,.2-1.03,.2Zm-.16-.39h.16c.4,0,.66-.03,.78-.1s.18-.23,.18-.48v-.53c0-.26-.06-.42-.18-.48s-.38-.1-.78-.1h-.16c-.4,0-.66,.03-.78,.1s-.18,.23-.18,.48v.53c0,.26,.06,.42,.18,.48s.38,.1,.78,.1Z"/><path class="e" d="M103.47,22.57c-.12,0-.21-.02-.29-.06s-.13-.09-.16-.16c-.03-.07-.06-.14-.09-.22-.02-.08-.05-.16-.08-.24-.03-.08-.07-.16-.12-.23-.05-.07-.13-.13-.23-.17s-.23-.07-.39-.08v.94c0,.07-.02,.12-.05,.16s-.08,.06-.14,.06c-.06,0-.11-.02-.14-.07s-.05-.1-.05-.16v-.94c-.16,0-.29,.03-.4,.08-.11,.05-.18,.1-.23,.17-.05,.07-.09,.14-.12,.23-.03,.08-.06,.16-.08,.24-.02,.08-.05,.15-.08,.22-.03,.07-.09,.12-.16,.16-.07,.04-.17,.06-.29,.06-.16,0-.25-.06-.25-.19s.08-.19,.25-.19c.04,0,.07-.02,.09-.07,.02-.05,.04-.11,.06-.18,.02-.07,.04-.15,.08-.23,.03-.08,.08-.16,.16-.25,.07-.09,.17-.15,.29-.2-.05-.06-.11-.15-.16-.26s-.1-.2-.14-.28c-.04-.08-.09-.15-.16-.21-.07-.06-.14-.09-.23-.09-.07,0-.13-.02-.18-.05-.05-.03-.07-.08-.07-.14,0-.13,.08-.19,.25-.19,.15,0,.28,.03,.39,.08,.11,.05,.2,.12,.26,.2,.06,.08,.12,.17,.17,.26s.09,.18,.12,.26c.03,.08,.06,.15,.1,.2,.04,.05,.08,.08,.12,.08h.2v-.86c0-.06,.02-.12,.05-.16,.04-.04,.08-.06,.14-.06,.07,0,.11,.02,.15,.06,.03,.04,.05,.09,.05,.15v.86h.2s.08-.03,.12-.08c.04-.05,.07-.12,.1-.2,.03-.08,.07-.17,.12-.26,.05-.09,.11-.18,.17-.26,.06-.08,.15-.15,.26-.2,.11-.05,.24-.08,.39-.08,.16,0,.25,.06,.25,.19s-.08,.19-.25,.19c-.09,0-.16,.03-.23,.09-.07,.06-.12,.13-.16,.21-.04,.08-.08,.17-.14,.28-.06,.11-.11,.2-.16,.26,.12,.05,.22,.12,.3,.2,.08,.09,.13,.17,.16,.25s.05,.16,.07,.24c.02,.08,.04,.14,.06,.18s.05,.07,.1,.07c.07,0,.13,.02,.18,.05,.05,.03,.07,.08,.07,.14,0,.13-.08,.19-.25,.19Z"/><path class="e" d="M107.04,20.06v2.28c0,.15-.06,.23-.19,.23-.13,0-.2-.08-.2-.25v-1.73l-1.88,1.94h-.37v-2.28c0-.15,.06-.23,.19-.23,.13,0,.2,.08,.2,.25v1.76l1.9-1.96h.36Z"/><path class="e" d="M109.82,20.06c.15,0,.23,.07,.23,.2,0,.12-.08,.19-.23,.19h-.8v1.91c0,.08-.02,.13-.07,.16-.05,.03-.1,.05-.16,.05-.14,0-.21-.07-.21-.21v-1.91h-.8c-.15,0-.23-.06-.23-.19s.08-.19,.23-.19h2.04Z"/><path class="e" d="M112.55,22.53h-.75c-.48,0-.83-.06-1.04-.2-.21-.13-.32-.38-.32-.76v-.56c0-.37,.11-.63,.32-.76,.21-.13,.56-.2,1.04-.2h.75c.23,0,.39,.06,.47,.18s.12,.28,.12,.47c0,.16-.06,.24-.19,.24-.05,0-.09-.02-.13-.05s-.06-.09-.06-.18c0-.11-.02-.18-.05-.22-.03-.04-.1-.06-.19-.06h-.72c-.4,0-.66,.03-.78,.1s-.18,.23-.18,.48v.53c0,.26,.06,.42,.18,.48s.38,.1,.78,.1h.72c.1,0,.16-.02,.19-.06s.05-.11,.05-.22c0-.08,.02-.14,.06-.18s.08-.05,.13-.05c.13,0,.19,.08,.19,.25,0,.2-.04,.35-.12,.47s-.24,.18-.47,.18Z"/><path class="e" d="M115.85,21.53h-.71c-.2,0-.34,.02-.41,.07-.07,.05-.13,.14-.17,.28-.06,.21-.16,.37-.29,.5-.13,.13-.28,.19-.44,.19s-.25-.06-.25-.19,.08-.19,.25-.19c.08,0,.15-.04,.21-.11,.06-.07,.1-.14,.12-.2l.02-.07c.04-.14,.1-.26,.2-.36-.17-.05-.29-.12-.37-.22s-.11-.25-.11-.43c0-.3,.1-.49,.29-.59,.2-.1,.54-.15,1.03-.15h.82c.06,0,.11,.02,.14,.07,.03,.04,.04,.09,.04,.14v2.11c0,.06-.02,.11-.06,.14-.04,.03-.08,.05-.13,.05-.06,0-.11-.02-.15-.06-.03-.04-.05-.08-.05-.13v-.85Zm-.8-1.08c-.3,0-.5,.02-.6,.05-.1,.04-.16,.12-.16,.26,0,.16,.04,.27,.14,.32,.09,.05,.3,.07,.62,.07h.8v-.7h-.8Z"/><path class="e" d="M117.12,22.18c.07-.05,.15-.08,.22-.08s.14,.02,.22,.07c.08,.05,.11,.12,.11,.2s-.04,.14-.11,.2-.15,.08-.22,.08c-.07,0-.14-.03-.22-.08s-.11-.12-.11-.2,.04-.14,.11-.2Zm.41-.7c0,.15-.07,.23-.2,.23-.12,0-.19-.08-.19-.23v-2.24c0-.08,.02-.14,.06-.18,.04-.04,.08-.05,.13-.05s.09,.02,.13,.05c.04,.04,.06,.09,.06,.18v2.24Z"/></g></g></g></svg>