<svg width="42" height="42" viewBox="0 0 42 42" fill="none" xmlns="http://www.w3.org/2000/svg">
<path d="M38.2741 6.10636L26.7098 3.0306C26.4468 2.9605 26.1677 3.01259 25.9463 3.16883L15.0663 7.78371L5.34597 5.95822C4.26962 5.75579 3.16904 6.04109 2.32623 6.74042C1.48342 7.43974 1 8.46889 1 9.56394V32.539C1 34.3274 2.27877 35.8473 4.0407 36.1535L14.7949 38.0219C14.847 38.031 14.8998 38.0353 14.9518 38.0353C15.13 38.0353 15.3043 37.9826 15.454 37.8846L26.4153 33.235L36.3881 35.8876C36.7038 35.9714 37.0235 36.0127 37.3402 36.0127C38.1372 36.0127 38.9157 35.7513 39.5669 35.2505C40.4775 34.5505 40.9997 33.4906 40.9997 32.3421L41 9.65212C41.0003 7.9914 39.8795 6.53352 38.2744 6.1067L38.2741 6.10636ZM4.35528 34.3458C3.47448 34.1928 2.8351 33.4329 2.8351 32.5386V9.56356C2.8351 9.01589 3.07683 8.50164 3.49806 8.1518C3.83052 7.87567 4.24357 7.72892 4.6674 7.72892C4.78041 7.72892 4.89472 7.73941 5.00806 7.7607L14.0357 9.45614V36.0277L4.35528 34.3458ZM15.8692 9.43535L25.5568 5.32585V31.6056L15.8692 35.7151V9.43535ZM39.1655 32.3417C39.1655 32.9159 38.9044 33.4458 38.4491 33.7957C37.9938 34.1455 37.4147 34.2618 36.8595 34.1141L27.3916 31.5959L27.3919 5.10983L37.8032 7.87893C38.6057 8.0925 39.1661 8.82128 39.1661 9.65168L39.1655 32.3417Z" fill="#FF9966" stroke="#FF9966"/>
</svg>
