<svg width="34" height="27" viewBox="0 0 34 27" fill="none" xmlns="http://www.w3.org/2000/svg">
<g opacity="0.2">
<path d="M6.18691 26.9402V25.1482C6.18691 24.4612 5.77833 24.0132 5.0779 24.0132C4.72769 24.0132 4.34829 24.1327 4.08563 24.5209C3.88134 24.1924 3.58949 24.0132 3.15172 24.0132C2.85988 24.0132 2.56803 24.1028 2.33456 24.4313V24.0729H1.72168V26.9402H2.33456V25.3572C2.33456 24.8495 2.59721 24.6105 3.0058 24.6105C3.41438 24.6105 3.61868 24.8794 3.61868 25.3572V26.9402H4.23155V25.3572C4.23155 24.8495 4.5234 24.6105 4.90279 24.6105C5.31138 24.6105 5.51567 24.8794 5.51567 25.3572V26.9402H6.18691ZM15.2633 24.0729H14.271V23.2068H13.6582V24.0729H13.1037V24.6404H13.6582V25.9546C13.6582 26.6116 13.9208 26.9999 14.6212 26.9999C14.8839 26.9999 15.1758 26.9103 15.38 26.7909L15.2049 26.2532C15.0298 26.3727 14.8255 26.4026 14.6796 26.4026C14.3878 26.4026 14.271 26.2234 14.271 25.9247V24.6404H15.2633V24.0729ZM20.4582 24.0132C20.1079 24.0132 19.8745 24.1924 19.7285 24.4313V24.0729H19.1157V26.9402H19.7285V25.3274C19.7285 24.8495 19.9328 24.5807 20.3122 24.5807C20.429 24.5807 20.5749 24.6105 20.6916 24.6404L20.8668 24.0431C20.75 24.0132 20.5749 24.0132 20.4582 24.0132ZM12.6075 24.3119C12.3157 24.1028 11.9071 24.0132 11.4693 24.0132C10.7689 24.0132 10.3019 24.3716 10.3019 24.9391C10.3019 25.417 10.6521 25.6858 11.265 25.7754L11.5569 25.8052C11.8779 25.865 12.053 25.9546 12.053 26.1039C12.053 26.313 11.8195 26.4623 11.4109 26.4623C11.0024 26.4623 10.6813 26.313 10.477 26.1636L10.1852 26.6415C10.5062 26.8805 10.944 26.9999 11.3818 26.9999C12.1989 26.9999 12.6659 26.6117 12.6659 26.074C12.6659 25.5663 12.2865 25.2975 11.7028 25.2079L11.4109 25.178C11.1483 25.1482 10.944 25.0884 10.944 24.9092C10.944 24.7001 11.1483 24.5807 11.4693 24.5807C11.8195 24.5807 12.1697 24.73 12.3449 24.8196L12.6075 24.3119ZM28.8925 24.0132C28.5423 24.0132 28.3088 24.1924 28.1629 24.4313V24.0729H27.55V26.9402H28.1629V25.3274C28.1629 24.8495 28.3672 24.5807 28.7466 24.5807C28.8633 24.5807 29.0092 24.6105 29.126 24.6404L29.3011 24.0431C29.1843 24.0132 29.0092 24.0132 28.8925 24.0132ZM21.071 25.5066C21.071 26.3727 21.6547 26.9999 22.5595 26.9999C22.968 26.9999 23.2599 26.9103 23.5517 26.6714L23.2599 26.1636C23.0264 26.3428 22.7929 26.4324 22.5303 26.4324C22.0341 26.4324 21.6839 26.074 21.6839 25.5066C21.6839 24.969 22.0341 24.6106 22.5303 24.5807C22.7929 24.5807 23.0264 24.6703 23.2599 24.8495L23.5517 24.3417C23.2599 24.1028 22.968 24.0132 22.5595 24.0132C21.6547 24.0132 21.071 24.6404 21.071 25.5066ZM26.7328 25.5066V24.0729H26.12V24.4313C25.9157 24.1625 25.6238 24.0132 25.2444 24.0132C24.4565 24.0132 23.8436 24.6404 23.8436 25.5066C23.8436 26.3727 24.4565 26.9999 25.2444 26.9999C25.653 26.9999 25.9449 26.8506 26.12 26.5818V26.9402H26.7328V25.5066ZM24.4856 25.5066C24.4856 24.9988 24.8067 24.5807 25.332 24.5807C25.8281 24.5807 26.1783 24.969 26.1783 25.5066C26.1783 26.0143 25.8281 26.4324 25.332 26.4324C24.8067 26.4026 24.4856 26.0143 24.4856 25.5066ZM17.1603 24.0132C16.3431 24.0132 15.7595 24.6105 15.7595 25.5066C15.7595 26.4026 16.3431 26.9999 17.1895 26.9999C17.5981 26.9999 18.0067 26.8805 18.3277 26.6117L18.0358 26.1636C17.8024 26.3428 17.5105 26.4623 17.2187 26.4623C16.8393 26.4623 16.4599 26.2831 16.3723 25.7754H18.4444C18.4444 25.6858 18.4444 25.626 18.4444 25.5364C18.4736 24.6105 17.9483 24.0132 17.1603 24.0132ZM17.1603 24.5508C17.5397 24.5508 17.8024 24.7898 17.8607 25.2378H16.4015C16.4599 24.8495 16.7225 24.5508 17.1603 24.5508ZM32.3655 25.5066V22.938H31.7526V24.4313C31.5483 24.1625 31.2564 24.0132 30.877 24.0132C30.0891 24.0132 29.4762 24.6404 29.4762 25.5066C29.4762 26.3727 30.0891 26.9999 30.877 26.9999C31.2856 26.9999 31.5775 26.8506 31.7526 26.5818V26.9402H32.3655V25.5066ZM30.1182 25.5066C30.1182 24.9988 30.4393 24.5807 30.9646 24.5807C31.4607 24.5807 31.811 24.969 31.811 25.5066C31.811 26.0143 31.4607 26.4324 30.9646 26.4324C30.4393 26.4026 30.1182 26.0143 30.1182 25.5066ZM9.6307 25.5066V24.0729H9.01782V24.4313C8.81353 24.1625 8.52168 24.0132 8.14228 24.0132C7.3543 24.0132 6.74142 24.6404 6.74142 25.5066C6.74142 26.3727 7.3543 26.9999 8.14228 26.9999C8.55087 26.9999 8.84271 26.8506 9.01782 26.5818V26.9402H9.6307V25.5066ZM7.3543 25.5066C7.3543 24.9988 7.67532 24.5807 8.20065 24.5807C8.69678 24.5807 9.04701 24.969 9.04701 25.5066C9.04701 26.0143 8.69678 26.4324 8.20065 26.4324C7.67532 26.4026 7.3543 26.0143 7.3543 25.5066Z" fill="#4E4E4E"/>
<path d="M21.5954 2.29932H12.4023V19.2042H21.5954V2.29932Z" fill="#4E4E4E"/>
<path d="M12.9871 10.7522C12.9871 7.31748 14.5631 4.27102 16.9854 2.29978C15.2051 0.866154 12.9579 0 10.5064 0C4.69871 0 0 4.80863 0 10.7522C0 16.6958 4.69871 21.5044 10.5064 21.5044C12.9579 21.5044 15.2051 20.6383 16.9854 19.2047C14.5631 17.2633 12.9871 14.1869 12.9871 10.7522Z" fill="#4E4E4E"/>
<path d="M34 10.7522C34 16.6958 29.3013 21.5044 23.4936 21.5044C21.0421 21.5044 18.7949 20.6383 17.0146 19.2047C19.4661 17.2334 21.0129 14.1869 21.0129 10.7522C21.0129 7.31748 19.437 4.27102 17.0146 2.29978C18.7949 0.866154 21.0421 0 23.4936 0C29.3013 0 34 4.8385 34 10.7522Z" fill="black"/>
</g>
</svg>
