<svg width="24" height="24" viewBox="0 0 24 24" fill="none" xmlns="http://www.w3.org/2000/svg">
<path d="M20.8019 18.1032C21.5874 17.0338 22 15.7911 22 14.4814C22 12.3849 20.9127 10.4384 19.0784 9.2237C18.9092 7.35577 18.0371 5.62347 16.5788 4.28875C14.9662 2.81285 12.8268 2 10.5547 2C8.28253 2 6.14316 2.81285 4.53059 4.28878C2.89871 5.78234 2 7.77366 2 9.89592C2 11.5283 2.52621 13.0758 3.52652 14.4L2.05696 18.0353C1.93778 18.3301 2.00914 18.6677 2.23746 18.889C2.38629 19.0332 2.58231 19.1094 2.78145 19.1094C2.88781 19.1093 2.99508 19.0876 3.09641 19.043L7.28785 17.1953C7.81406 17.3965 8.35617 17.5469 8.91077 17.6465C9.47886 18.5808 10.2892 19.372 11.2742 19.948C12.374 20.5909 13.6438 20.9345 14.9499 20.9443C14.9691 20.9457 14.9883 20.9473 15.0078 20.9473C15.9108 20.9473 16.7858 20.7913 17.6134 20.4832L20.9036 21.9336C21.0049 21.9783 21.1122 22 21.2186 22C21.4177 22 21.6138 21.9239 21.7626 21.7796C21.9909 21.5583 22.0622 21.2207 21.9431 20.9259L20.8019 18.1032ZM19.1831 18.2678L19.7733 19.7278L17.9438 18.9213C17.746 18.8341 17.5209 18.8327 17.3221 18.9176C16.605 19.2235 15.8371 19.3803 15.0394 19.3844C15.0289 19.384 15.0185 19.3828 15.0078 19.3828C13.4682 19.3828 12.0137 18.7811 10.9975 17.7803C12.2859 17.7186 13.5488 17.3896 14.6747 16.8178C15.0594 16.6224 15.2129 16.1522 15.0175 15.7674C14.8221 15.3827 14.3519 15.2294 13.9671 15.4247C12.9307 15.9511 11.7506 16.2293 10.5547 16.2293C9.51546 16.2293 8.51496 16.0273 7.58109 15.6288C7.3823 15.544 7.15714 15.5453 6.95937 15.6326L4.22664 16.8372L5.14672 14.5612C5.25582 14.2913 5.20586 13.9831 5.01699 13.7616C4.06547 12.6453 3.5625 11.3085 3.5625 9.89592C3.5625 6.40362 6.69918 3.5625 10.5547 3.5625C14.4102 3.5625 17.5469 6.40362 17.5469 9.89592C17.5469 11.0239 17.2153 12.1312 16.5878 13.0982C16.353 13.4602 16.456 13.944 16.818 14.1788C17.1799 14.4137 17.6637 14.3106 17.8986 13.9486C18.4554 13.0905 18.8274 12.143 18.9994 11.1589C19.9146 12.0552 20.4375 13.2357 20.4375 14.4814C20.4375 15.5723 20.0486 16.6051 19.3129 17.4682C19.124 17.6897 19.074 17.9979 19.1831 18.2678ZM11.2969 13.914C11.2969 14.3455 10.9471 14.6953 10.5156 14.6953C10.0841 14.6953 9.73437 14.3455 9.73437 13.914C9.73437 13.4826 10.0841 13.1328 10.5156 13.1328C10.9471 13.1328 11.2969 13.4826 11.2969 13.914ZM13.4837 8.06061C13.4842 8.07147 13.4844 8.08233 13.4844 8.09331C13.4847 9.26936 12.7859 10.3277 11.7042 10.7895C11.4804 10.8851 11.3357 11.1105 11.3357 11.3637V11.414C11.3357 11.8455 10.9859 12.1953 10.5544 12.1953C10.123 12.1953 9.7732 11.8455 9.7732 11.414V11.3638C9.7732 10.4837 10.2903 9.6942 11.0907 9.35253C11.5889 9.13983 11.9131 8.6562 11.9217 8.11608C11.9215 8.10858 11.9214 8.10104 11.9214 8.0935C11.9214 7.33979 11.3082 6.72659 10.5544 6.72659C9.80073 6.72655 9.18749 7.33976 9.18749 8.09346C9.18749 8.52495 8.83773 8.87471 8.40624 8.87471C7.97476 8.87471 7.625 8.52495 7.625 8.09346C7.625 6.47819 8.93913 5.16406 10.5544 5.16406C12.1588 5.16406 13.4661 6.46042 13.4837 8.06061Z" fill="#8C8C8C"/>
</svg>
