<svg width="24" height="24" viewBox="0 0 24 24" fill="none" xmlns="http://www.w3.org/2000/svg">
<path d="M15.2451 11.9616C15.246 12.1204 15.2156 12.2778 15.1555 12.4249C15.0955 12.5719 15.007 12.7056 14.8951 12.8184L10.0684 17.6451C9.84116 17.8723 9.53297 18 9.21163 18C8.89028 18 8.5821 17.8723 8.35488 17.6451C8.12765 17.4179 8 17.1097 8 16.7884C8 16.467 8.12765 16.1588 8.35488 15.9316L12.337 11.9616L8.36694 7.99159C8.16926 7.76075 8.06596 7.46381 8.07769 7.16012C8.08942 6.85642 8.21531 6.56834 8.43022 6.35343C8.64512 6.13853 8.93321 6.01263 9.2369 6.0009C9.5406 5.98917 9.83754 6.09247 10.0684 6.29016L14.8951 11.1169C15.1181 11.3417 15.2438 11.645 15.2451 11.9616Z" fill="#616161"/>
</svg>
