<svg width="36" height="36" viewBox="0 0 36 36" fill="none" xmlns="http://www.w3.org/2000/svg">
<path d="M18 31.5C25.4558 31.5 31.5 25.4558 31.5 18C31.5 10.5442 25.4558 4.5 18 4.5C10.5442 4.5 4.5 10.5442 4.5 18C4.5 25.4558 10.5442 31.5 18 31.5Z" stroke="#FF9966" stroke-width="2" stroke-miterlimit="10"/>
<path d="M14.8902 13.3113C15.0735 12.8777 15.3454 12.4872 15.6885 12.165C16.0316 11.8427 16.4384 11.5957 16.8826 11.44C17.3268 11.2842 17.7987 11.2231 18.2679 11.2606C18.7372 11.298 19.1934 11.4332 19.6073 11.6574C20.0212 11.8816 20.3836 12.1899 20.6713 12.5625C20.959 12.9351 21.1655 13.3638 21.2777 13.8209C21.3899 14.2781 21.4052 14.7537 21.3227 15.2171C21.2402 15.6806 21.0617 16.1216 20.7986 16.512V16.512L14.625 24.75V24.7492H21.375" stroke="#FF9966" stroke-width="2" stroke-linecap="round" stroke-linejoin="round"/>
</svg>
