<svg width="36" height="36" viewBox="0 0 36 36" fill="none" xmlns="http://www.w3.org/2000/svg">
<path d="M18 31.5C25.4558 31.5 31.5 25.4558 31.5 18C31.5 10.5442 25.4558 4.5 18 4.5C10.5442 4.5 4.5 10.5442 4.5 18C4.5 25.4558 10.5442 31.5 18 31.5Z" stroke="#FF9966" stroke-width="2" stroke-miterlimit="10"/>
<path d="M14.625 11.8114H21.375L17.4384 17.4375C18.0859 17.4375 18.7234 17.5972 19.2945 17.9024C19.8656 18.2077 20.3526 18.6491 20.7123 19.1874C21.072 19.7258 21.2935 20.3447 21.3569 20.9891C21.4204 21.6335 21.324 22.2836 21.0762 22.8818C20.8284 23.4801 20.4369 24.0079 19.9363 24.4187C19.4358 24.8295 18.8416 25.1105 18.2066 25.2368C17.5715 25.3632 16.915 25.3309 16.2954 25.143C15.6758 24.955 15.112 24.6171 14.6542 24.1592" stroke="#FF9966" stroke-width="2" stroke-linecap="round" stroke-linejoin="round"/>
</svg>
