<svg width="13" height="22" viewBox="0 0 13 22" fill="none" xmlns="http://www.w3.org/2000/svg">
<g clip-path="url(#clip0_1578_19944)">
<path d="M6.50796 11.3546C9.71095 11.3536 12.3054 8.81032 12.3043 5.67526C12.3033 2.5392 9.70578 -0.00101133 6.50382 3.02056e-07C3.30187 0.00101194 0.706412 2.54426 0.707445 5.67931C0.711578 8.81335 3.30703 11.3526 6.50796 11.3546ZM6.50796 3.32827C7.83461 3.32827 8.9102 4.38138 8.9102 5.68032C8.9102 6.97926 7.83461 8.03136 6.50796 8.03136C5.1813 8.03136 4.10571 6.97825 4.10571 5.67931C4.10778 4.38138 5.18233 3.32929 6.50796 3.32827ZM8.85234 15.9868C10.0457 15.7218 11.1843 15.2595 12.2206 14.6211C13.01 14.1224 13.2373 13.0926 12.728 12.3197C12.2268 11.5589 11.1957 11.3293 10.4084 11.8037C8.02059 13.2655 4.98912 13.2655 2.60134 11.8037C1.80886 11.3171 0.762206 11.5498 0.263159 12.3247C-0.237953 13.1007 -0.00237881 14.1285 0.791136 14.6191C0.792169 14.6191 0.793203 14.6201 0.793203 14.6201C1.82849 15.2575 2.9671 15.7198 4.15944 15.9858L0.917189 19.1603C0.271425 19.828 0.301389 20.8821 0.984349 21.5144C1.64044 22.1214 2.6654 22.1214 3.3215 21.5144L6.50589 18.3945L9.69235 21.5144C10.3557 22.1629 11.4292 22.1629 12.0925 21.5144C12.7548 20.8649 12.7548 19.8139 12.0925 19.1644L8.85234 15.9868Z" fill="#FF9B21"/>
</g>
<defs>
<clipPath id="clip0_1578_19944">
<rect width="13" height="22" fill="white"/>
</clipPath>
</defs>
</svg>
