<svg width="153" height="41" viewBox="0 0 153 41" fill="none" xmlns="http://www.w3.org/2000/svg">
<g clip-path="url(#clip0_2026_71668)">
<path d="M152.376 29.6111L102.104 40.6746M0.3125 40.6746V29.6111V40.6746ZM0.3125 29.6111L34.3472 37.0952L0.3125 29.6111ZM0.3125 29.6111L19.0472 27.2233L0.3125 29.6111ZM98.9819 22.127L152.376 29.6111L98.9819 22.127ZM152.376 29.6111V40.6746V29.6111Z" stroke="#333333"/>
<path d="M89.9273 0.650879C64.6355 12.6904 29.9763 22.4523 0.9375 17.8968C10.8252 25.7064 19.3599 29.9365 58.3906 28.3095C84.3069 37.7461 120.527 4.88088 147.068 9.11113C121.152 -2.92864 101.168 6.18247 89.9273 0.650879Z" stroke="#333333"/>
</g>
<defs>
<clipPath id="clip0_2026_71668">
<rect width="153" height="41" fill="white"/>
</clipPath>
</defs>
</svg>
