<svg width="93" height="48" viewBox="0 0 93 48" fill="none" xmlns="http://www.w3.org/2000/svg">
<g clip-path="url(#clip0_2026_71671)">
<path d="M90.5253 40.5542C80.0242 45.8625 72.2919 41.151 58.6941 41.151C39.1752 41.151 40.9736 47.4147 19.3152 47.4147C8.48434 47.4147 0.956573 45.7563 0.610232 40.5542C0.1535 33.6939 17.8558 8.67158 26.8628 13.7096C39.661 20.8682 40.2243 0.585478 54.7561 0.585449C69.2881 0.585418 100.293 35.6167 90.5253 40.5542Z" stroke="#333333"/>
<path d="M2.71875 33.3657C6.64407 34.5365 28.9882 39.8048 50.7285 31.0243C68.1207 23.9999 84.3456 28.0975 90.2837 31.0243" stroke="#333333"/>
<path d="M47.1016 3.21948C48.6113 3.80485 54.3483 7.02436 63.1048 3.21948" stroke="#333333"/>
<path d="M43.4844 5.85376C47.4097 7.90254 56.1662 12.2928 69.15 7.60986" stroke="#333333"/>
<path d="M39.5547 10.2439C42.5742 11.7073 56.1618 19.9024 76.6943 13.7561" stroke="#333333"/>
<path d="M19.0234 14.9267C21.439 15.8048 23.2507 16.9755 28.3838 14.634" stroke="#333333"/>
<path d="M14.4922 18.1466C18.1156 19.9025 25.6336 20.5361 32.6091 17.5611C40.1578 14.3416 58.5766 24.0002 81.5247 18.7319" stroke="#333333"/>
<path d="M9.6597 23.4144C14.7928 24.2927 19.0201 26.3414 32.9097 23.4145C41.1334 21.6816 48.2945 22.4649 55.2539 23.4145C36.5331 31.0243 22.9454 31.317 5.73438 28.3902" stroke="#333333"/>
<path d="M87.2646 26.049C82.1315 24.8782 77.6023 23.7074 73.375 23.7074C76.3945 21.9513 81.2256 22.8294 83.9432 21.366" stroke="#333333"/>
<path d="M0.601562 40.0975C3.3191 42.1463 7.24442 45.2021 21.7379 44.4878C39.5529 43.6097 42.5836 39.6085 51.0269 38.6341C63.7087 37.1707 85.449 43.0243 92.0918 37.1707" stroke="#333333"/>
<path d="M55.5547 33.5923C62.1975 32.4215 67.9346 29.7874 83.032 33.5923C78.9255 36.3489 63.0025 34.7409 55.5547 33.5923Z" stroke="#333333"/>
</g>
<defs>
<clipPath id="clip0_2026_71671">
<rect width="93" height="48" fill="white"/>
</clipPath>
</defs>
</svg>
