<svg width="25" height="24" viewBox="0 0 25 24" fill="none" xmlns="http://www.w3.org/2000/svg">
<path d="M18.1493 6.34999C16.5193 4.71999 14.2093 3.77999 11.6693 4.03999C7.99929 4.40999 4.97929 7.38999 4.56929 11.06C4.01929 15.91 7.76929 20 12.4993 20C15.6893 20 18.4293 18.13 19.7093 15.44C20.0293 14.77 19.5493 14 18.8093 14C18.4393 14 18.0893 14.2 17.9293 14.53C16.7993 16.96 14.0893 18.5 11.1293 17.84C8.90929 17.35 7.11929 15.54 6.64929 13.32C5.80929 9.43999 8.75929 5.99999 12.4993 5.99999C14.1593 5.99999 15.6393 6.68999 16.7193 7.77999L15.2093 9.28999C14.5793 9.91999 15.0193 11 15.9093 11H19.4993C20.0493 11 20.4993 10.55 20.4993 9.99999V6.40999C20.4993 5.51999 19.4193 5.06999 18.7893 5.69999L18.1493 6.34999Z" fill="#8C8C8C"/>
</svg>
