<svg width="30" height="24" viewBox="0 0 30 24" fill="none" xmlns="http://www.w3.org/2000/svg">
<g opacity="0.8">
<path d="M1.49926 13.4933H24.8667L16.9311 21.4289C16.7894 21.5676 16.6765 21.733 16.5991 21.9155C16.5217 22.0981 16.4813 22.2942 16.4802 22.4925C16.4791 22.6908 16.5174 22.8873 16.5927 23.0707C16.6681 23.2541 16.7792 23.4208 16.9194 23.561C17.0596 23.7012 17.2263 23.8122 17.4097 23.8875C17.5931 23.9629 17.7896 24.0011 17.9879 24C18.1862 23.9988 18.3823 23.9584 18.5649 23.881C18.7474 23.8035 18.9128 23.6906 19.0514 23.5489L29.5463 13.054C29.8273 12.7729 29.9852 12.3916 29.9852 11.9941C29.9852 11.5965 29.8273 11.2152 29.5463 10.9341L19.0514 0.439284C18.9124 0.299828 18.7471 0.18923 18.5651 0.113843C18.3831 0.0384573 18.1881 -0.000231234 17.9911 1.03969e-06C17.6946 6.43449e-05 17.4048 0.0880283 17.1583 0.252773C16.9118 0.417518 16.7197 0.651647 16.6063 0.925561C16.4928 1.19948 16.4631 1.50088 16.521 1.79166C16.5788 2.08245 16.7215 2.34956 16.9311 2.55923L24.8667 10.4948H1.49926C1.10163 10.4948 0.720288 10.6528 0.439122 10.9339C0.157957 11.2151 0 11.5964 0 11.9941C0 12.3917 0.157957 12.773 0.439122 13.0542C0.720288 13.3354 1.10163 13.4933 1.49926 13.4933Z" fill="white"/>
</g>
</svg>
