<svg width="5" height="9" viewBox="0 0 5 9" fill="none" xmlns="http://www.w3.org/2000/svg">
<path d="M0.232761 0.236386C0.0836785 0.386358 -3.43059e-07 0.58923 -3.33815e-07 0.800694C-3.24572e-07 1.01216 0.0836785 1.21503 0.232761 1.365L3.06631 4.23857L0.232761 7.07212C0.0836788 7.22209 -4.42595e-08 7.42496 -3.50161e-08 7.63642C-2.57727e-08 7.84789 0.0836788 8.05076 0.232761 8.20073C0.307172 8.27576 0.395701 8.3353 0.493242 8.37594C0.590782 8.41658 0.695404 8.4375 0.801071 8.4375C0.906738 8.4375 1.01136 8.41658 1.1089 8.37594C1.20644 8.3353 1.29497 8.27576 1.36938 8.20073L4.76323 4.80688C4.83826 4.73247 4.8978 4.64394 4.93844 4.5464C4.97908 4.44886 5 4.34424 5 4.23857C5 4.1329 4.97908 4.02828 4.93844 3.93074C4.8978 3.8332 4.83826 3.74467 4.76323 3.67026L1.36938 0.236386C1.29497 0.161363 1.20644 0.101815 1.1089 0.0611772C1.01136 0.0205402 0.906738 -0.000382463 0.801071 -0.000382458C0.695403 -0.000382454 0.590782 0.0205402 0.493241 0.0611772C0.395701 0.101815 0.307172 0.161363 0.232761 0.236386Z" fill="#59C33B"/>
</svg>
