<svg width="16" height="16" viewBox="0 0 16 16" fill="none" xmlns="http://www.w3.org/2000/svg">
<path d="M7.23276 3.79889C7.08368 3.94886 7 4.15173 7 4.36319C7 4.57466 7.08368 4.77753 7.23276 4.9275L10.0663 7.80107L7.23276 10.6346C7.08368 10.7846 7 10.9875 7 11.1989C7 11.4104 7.08368 11.6133 7.23276 11.7632C7.30717 11.8383 7.3957 11.8978 7.49324 11.9384C7.59078 11.9791 7.6954 12 7.80107 12C7.90674 12 8.01136 11.9791 8.1089 11.9384C8.20644 11.8978 8.29497 11.8383 8.36938 11.7632L11.7632 8.36938C11.8383 8.29497 11.8978 8.20644 11.9384 8.1089C11.9791 8.01136 12 7.90674 12 7.80107C12 7.6954 11.9791 7.59078 11.9384 7.49324C11.8978 7.3957 11.8383 7.30717 11.7632 7.23276L8.36938 3.79889C8.29497 3.72386 8.20644 3.66432 8.1089 3.62368C8.01136 3.58304 7.90674 3.56212 7.80107 3.56212C7.6954 3.56212 7.59078 3.58304 7.49324 3.62368C7.3957 3.66432 7.30717 3.72386 7.23276 3.79889Z" fill="#616161"/>
</svg>
