<svg width="36" height="36" viewBox="0 0 36 36" fill="none" xmlns="http://www.w3.org/2000/svg">
<path d="M16.5 15H24C24.8284 15 25.5 15.6716 25.5 16.5V24C25.5 24.8284 24.8284 25.5 24 25.5H16.5C15.6716 25.5 15 24.8284 15 24V16.5C15 15.6716 15.6716 15 16.5 15Z" fill="#B2E5B6"/>
<path d="M15 16.5C15 15.6715 15.6715 15 16.5 15H21V12C21 11.1715 20.3285 10.5 19.5 10.5H12C11.1715 10.5 10.5 11.1715 10.5 12V19.5C10.5 20.3285 11.1715 21 12 21H15V16.5ZM6 33C4.34314 33 3 31.6569 3 30C3 28.3431 4.34314 27 6 27C7.65686 27 9 28.3431 9 30C8.99786 31.656 7.65597 32.9979 6 33ZM6 9C4.34314 9 3 7.65686 3 6C3 4.34314 4.34314 3 6 3C7.65686 3 9 4.34314 9 6C8.99786 7.65597 7.65597 8.99786 6 9ZM30 9C28.3431 9 27 7.65686 27 6C27 4.34314 28.3431 3 30 3C31.6569 3 33 4.34314 33 6C32.9979 7.65597 31.656 8.99786 30 9ZM30 33C28.3431 33 27 31.6569 27 30C27 28.3431 28.3431 27 30 27C31.6569 27 33 28.3431 33 30C32.9979 31.656 31.656 32.9979 30 33Z" fill="#3DB845"/>
<path d="M27.4175 7.5C26.8608 6.57746 26.8608 5.42254 27.4175 4.5H8.58252C9.13916 5.42254 9.13916 6.57746 8.58252 7.5H27.4175ZM30 27C30.5283 27.003 31.0461 27.1472 31.5 27.4175V8.58252C30.5775 9.13916 29.4225 9.13916 28.5 8.58252V27.4175C28.9539 27.1472 29.4717 27.003 30 27ZM6 27C6.52827 27.003 7.04613 27.1472 7.5 27.4175V8.58252C6.57746 9.13916 5.42254 9.13916 4.5 8.58252V27.4175C4.95387 27.1472 5.47173 27.003 6 27ZM27.4175 28.5H8.58252C9.13916 29.4225 9.13916 30.5775 8.58252 31.5H27.4175C26.8608 30.5775 26.8608 29.4225 27.4175 28.5Z" fill="#E2F5E3"/>
</svg>
