<svg width="23" height="28" viewBox="0 0 23 28" fill="none" xmlns="http://www.w3.org/2000/svg">
<path d="M12.0056 3.7824C11.8679 3.0612 12.4557 2.4 13.1836 2.4H14.25C14.9055 2.4 15.4375 1.8624 15.4375 1.2C15.4375 0.5376 14.9055 0 14.25 0H4.75C4.0945 0 3.5625 0.5376 3.5625 1.2C3.5625 1.8624 4.0945 2.4 4.75 2.4H5.81637C6.54431 2.4 7.13212 3.0612 6.99437 3.7824C6.41784 6.77339 4.00969 9.10377 0.996935 9.53007C0.450098 9.60745 0 10.0477 0 10.6V22.8C0 23.4624 0.532 24 1.1875 24H17.8125C18.468 24 19 23.4624 19 22.8V10.6C19 10.0477 18.5499 9.60745 18.0031 9.53007C14.9903 9.10377 12.5822 6.77339 12.0056 3.7824Z" fill="url(#paint0_linear_2450_61223)"/>
<path opacity="0.2" d="M16.0056 7.7824C15.8679 7.0612 16.4557 6.4 17.1836 6.4H18.25C18.9055 6.4 19.4375 5.8624 19.4375 5.2C19.4375 4.5376 18.9055 4 18.25 4H8.75C8.0945 4 7.5625 4.5376 7.5625 5.2C7.5625 5.8624 8.0945 6.4 8.75 6.4H9.81637C10.5443 6.4 11.1321 7.0612 10.9944 7.7824C10.4178 10.7734 8.00969 13.1038 4.99694 13.5301C4.4501 13.6074 4 14.0477 4 14.6V26.8C4 27.4624 4.532 28 5.1875 28H21.8125C22.468 28 23 27.4624 23 26.8V14.6C23 14.0477 22.5499 13.6074 22.0031 13.5301C18.9903 13.1038 16.5822 10.7734 16.0056 7.7824Z" fill="url(#paint1_linear_2450_61223)"/>
<defs>
<linearGradient id="paint0_linear_2450_61223" x1="15.6957" y1="6.25214e-07" x2="15.6957" y2="24" gradientUnits="userSpaceOnUse">
<stop stop-color="#3DB845"/>
<stop offset="1" stop-color="#B2E5B6"/>
</linearGradient>
<linearGradient id="paint1_linear_2450_61223" x1="19.6957" y1="4" x2="19.6957" y2="28" gradientUnits="userSpaceOnUse">
<stop stop-color="#3DB845"/>
<stop offset="1" stop-color="#B2E5B6"/>
</linearGradient>
</defs>
</svg>
