<svg width="30" height="32" viewBox="0 0 30 32" fill="none" xmlns="http://www.w3.org/2000/svg">
<path d="M29.7247 27.2935L26.9122 24.2935C26.321 23.6628 25.3122 24.1122 25.3122 25.0002V26.6668H4.99973V5.00015H6.56223C7.39848 5.00015 7.81473 3.92016 7.22473 3.29349L4.41223 0.293488C4.04598 -0.0971784 3.45223 -0.0971784 3.08598 0.293488L0.274726 3.29349C-0.314024 3.92016 0.102226 5.00015 0.937226 5.00015H2.49973V26.6668H1.24973C0.558476 26.6668 -0.000273721 27.2642 -0.000273721 28.0002C-0.000273721 28.7362 0.558476 29.3335 1.24973 29.3335H2.49973V30.6668C2.49973 31.4028 3.05848 32.0002 3.74973 32.0002C4.44098 32.0002 4.99973 31.4028 4.99973 30.6668V29.3335H25.3122V31.0002C25.3122 31.8922 26.326 32.3322 26.9122 31.7068L29.7247 28.7068C30.091 28.3162 30.091 27.6842 29.7247 27.2935Z" fill="url(#paint0_linear_2403_56783)"/>
<path d="M16.25 5.3335L25 9.3335L16.25 13.3335L7.5 9.3335L16.25 5.3335Z" fill="url(#paint1_linear_2403_56783)"/>
<path d="M15 15.6629L7.5 12.2349V20.0002C7.5 20.2762 7.65875 20.5242 7.9 20.6229L15 23.5349V15.6629Z" fill="url(#paint2_linear_2403_56783)"/>
<path d="M17.5 16.428V24.3L24.6 21.3867C24.8413 21.2893 25 21.0413 25 20.7653V13L17.5 16.428Z" fill="url(#paint3_linear_2403_56783)"/>
<defs>
<linearGradient id="paint0_linear_2403_56783" x1="14.9992" y1="0.000488281" x2="14.9992" y2="32.0002" gradientUnits="userSpaceOnUse">
<stop stop-color="#40B949"/>
<stop offset="1" stop-color="#A3DFA7"/>
</linearGradient>
<linearGradient id="paint1_linear_2403_56783" x1="16.25" y1="5.3335" x2="16.25" y2="13.3335" gradientUnits="userSpaceOnUse">
<stop stop-color="#40B949"/>
<stop offset="1" stop-color="#A3DFA7"/>
</linearGradient>
<linearGradient id="paint2_linear_2403_56783" x1="11.25" y1="12.2349" x2="11.25" y2="23.5349" gradientUnits="userSpaceOnUse">
<stop stop-color="#40B949"/>
<stop offset="1" stop-color="#A3DFA7"/>
</linearGradient>
<linearGradient id="paint3_linear_2403_56783" x1="21.25" y1="13" x2="21.25" y2="24.3" gradientUnits="userSpaceOnUse">
<stop stop-color="#40B949"/>
<stop offset="1" stop-color="#A3DFA7"/>
</linearGradient>
</defs>
</svg>
