<svg width="36" height="36" viewBox="0 0 36 36" fill="none" xmlns="http://www.w3.org/2000/svg">
<path d="M30.3453 10.8599L18.0003 17.9999L5.65527 10.8599C5.90874 10.4212 6.2702 10.0546 6.70527 9.79489L16.5003 4.13989C17.4314 3.61483 18.5692 3.61483 19.5003 4.13989L29.2953 9.79489C29.7303 10.0546 30.0918 10.4212 30.3453 10.8599Z" fill="#DAF3DC"/>
<path d="M18 17.9999V32.2499C17.5271 32.2492 17.0604 32.1415 16.635 31.9349L6.75 26.2199C5.82342 25.6838 5.25203 24.6953 5.25 23.6249V12.3749C5.25249 11.8434 5.39199 11.3216 5.655 10.8599L18 17.9999Z" fill="#B0E8B4"/>
<path d="M30.75 12.3749V23.6249C30.748 24.6953 30.1766 25.6838 29.25 26.2199L19.32 31.9499C18.907 32.1446 18.4566 32.247 18 32.2499V17.9999L30.345 10.8599C30.608 11.3216 30.7475 11.8434 30.75 12.3749Z" fill="#3DB845"/>
</svg>
