<svg width="28" height="28" viewBox="0 0 28 28" fill="none" xmlns="http://www.w3.org/2000/svg">
<path d="M22.1663 15.1663H8.32968L12.5647 20.253C12.6627 20.371 12.7366 20.5071 12.782 20.6536C12.8275 20.8001 12.8436 20.9542 12.8295 21.1069C12.8011 21.4154 12.6513 21.7 12.413 21.898C12.1748 22.096 11.8676 22.1913 11.5591 22.1629C11.2506 22.1344 10.966 21.9846 10.768 21.7463L4.93468 14.7463C4.89543 14.6907 4.86034 14.6322 4.82968 14.5713C4.82968 14.513 4.77134 14.478 4.74801 14.4197C4.69513 14.2859 4.66744 14.1435 4.66634 13.9997C4.66744 13.8558 4.69513 13.7134 4.74801 13.5797C4.74801 13.5213 4.80634 13.4863 4.82968 13.428C4.86034 13.3672 4.89543 13.3087 4.93468 13.253L10.768 6.25301C10.8777 6.12131 11.0151 6.0154 11.1703 5.94281C11.3256 5.87022 11.4949 5.83273 11.6663 5.83301C11.9389 5.83248 12.2031 5.92742 12.413 6.10134C12.5311 6.19928 12.6288 6.31957 12.7004 6.45531C12.772 6.59104 12.816 6.73957 12.8301 6.89238C12.8442 7.04518 12.828 7.19927 12.7825 7.34581C12.7369 7.49234 12.6629 7.62845 12.5647 7.74634L8.32968 12.833H22.1663C22.4758 12.833 22.7725 12.9559 22.9913 13.1747C23.2101 13.3935 23.333 13.6903 23.333 13.9997C23.333 14.3091 23.2101 14.6058 22.9913 14.8246C22.7725 15.0434 22.4758 15.1663 22.1663 15.1663Z" fill="#8C8C8C"/>
</svg>
