<svg width="28" height="28" viewBox="0 0 28 28" fill="none" xmlns="http://www.w3.org/2000/svg">
<path d="M5.83366 15.1663H19.6703L15.4353 20.253C15.3373 20.371 15.2634 20.5071 15.218 20.6536C15.1725 20.8001 15.1564 20.9542 15.1705 21.1069C15.1989 21.4154 15.3487 21.7 15.587 21.898C15.8252 22.096 16.1324 22.1913 16.4409 22.1629C16.7494 22.1344 17.034 21.9846 17.232 21.7463L23.0653 14.7463C23.1046 14.6907 23.1397 14.6322 23.1703 14.5713C23.1703 14.513 23.2287 14.478 23.252 14.4197C23.3049 14.2859 23.3326 14.1435 23.3337 13.9997C23.3326 13.8558 23.3049 13.7134 23.252 13.5797C23.252 13.5213 23.1937 13.4863 23.1703 13.428C23.1397 13.3672 23.1046 13.3087 23.0653 13.253L17.232 6.25301C17.1223 6.12131 16.9849 6.0154 16.8297 5.94281C16.6744 5.87022 16.5051 5.83273 16.3337 5.83301C16.0611 5.83248 15.7969 5.92742 15.587 6.10134C15.4689 6.19928 15.3712 6.31957 15.2996 6.45531C15.228 6.59104 15.184 6.73957 15.1699 6.89238C15.1558 7.04518 15.172 7.19927 15.2175 7.34581C15.2631 7.49234 15.3371 7.62845 15.4353 7.74634L19.6703 12.833H5.83366C5.52424 12.833 5.22749 12.9559 5.0087 13.1747C4.78991 13.3935 4.66699 13.6903 4.66699 13.9997C4.66699 14.3091 4.78991 14.6058 5.0087 14.8246C5.22749 15.0434 5.52424 15.1663 5.83366 15.1663Z" fill="#8C8C8C"/>
</svg>
