<svg width="46" height="46" viewBox="0 0 46 46" fill="none" xmlns="http://www.w3.org/2000/svg">
<g clip-path="url(#clip0_2771_72895)">
<path d="M30.6669 6.68849V3.06667C31.5138 3.06667 32.2003 2.38017 32.2003 1.53333C32.2003 0.686497 31.5138 0 30.6669 0H21.4669C20.6201 0 19.9336 0.686497 19.9336 1.53333C19.9336 2.38017 20.6201 3.06667 21.4669 3.06667V6.69486C17.3323 7.67412 13.5587 9.97977 10.813 13.2309C10.2667 13.8778 10.4289 14.8401 11.1171 15.3334C11.8051 15.8267 12.7577 15.6635 13.3127 15.0242C15.8632 12.086 19.411 10.0783 23.2556 9.43883C25.1333 9.12139 26.9983 9.12064 28.8805 9.43958C37.0234 10.8015 42.9336 17.7943 42.9336 26.0667C42.9336 35.367 35.3673 42.9333 26.0669 42.9333C21.1607 42.9333 16.498 40.7805 13.3124 37.1078C12.7576 36.4682 11.8046 36.3059 11.1169 36.8C10.4293 37.2941 10.2681 38.2568 10.8139 38.9042C14.5812 43.3729 20.1758 46 26.0669 46C37.0586 46 46.0003 37.0583 46.0003 26.0667C46.0003 16.7307 39.6223 8.78841 30.6669 6.68849ZM24.5336 6.19959V3.06667H27.6003V6.19968C26.5776 6.12004 25.5546 6.12013 24.5336 6.19959Z" fill="#FF9966"/>
<path d="M0 26.0665C0 25.2197 0.686497 24.5332 1.53333 24.5332H12.2667C13.1135 24.5332 13.8 25.2197 13.8 26.0665C13.8 26.9134 13.1135 27.5999 12.2667 27.5999H1.53333C0.686498 27.5999 0 26.9134 0 26.0665Z" fill="#FF9966"/>
<path d="M3.06641 19.9337C3.06641 19.0869 3.7529 18.4004 4.59974 18.4004H15.3331C16.1799 18.4004 16.8664 19.0869 16.8664 19.9337C16.8664 20.7806 16.1799 21.4671 15.3331 21.4671H4.59974C3.7529 21.4671 3.06641 20.7806 3.06641 19.9337Z" fill="#FF9966"/>
<path d="M3.06641 32.1993C3.06641 31.3525 3.7529 30.666 4.59974 30.666H15.3331C16.1799 30.666 16.8664 31.3525 16.8664 32.1993C16.8664 33.0462 16.1799 33.7327 15.3331 33.7327H4.59974C3.7529 33.7327 3.06641 33.0462 3.06641 32.1993Z" fill="#FF9966"/>
<path d="M34.73 17.4034C34.1312 16.8047 33.1605 16.8047 32.5618 17.4034L28.0377 21.9275C27.4379 21.6406 26.7748 21.4666 26.0668 21.4666C23.5302 21.4666 21.4668 23.53 21.4668 26.0666C21.4668 28.6032 23.5302 30.6666 26.0668 30.6666C28.6034 30.6666 30.6668 28.6032 30.6668 26.0666C30.6668 25.3586 30.4928 24.6955 30.2059 24.0958L34.73 19.5717C35.3287 18.9729 35.3287 18.0022 34.73 17.4034ZM26.0668 27.6C25.2215 27.6 24.5335 26.9119 24.5335 26.0666C24.5335 25.2213 25.2215 24.5333 26.0668 24.5333C26.9121 24.5333 27.6001 25.2213 27.6001 26.0666C27.6001 26.9119 26.9121 27.6 26.0668 27.6Z" fill="#FF9966"/>
</g>
<defs>
<clipPath id="clip0_2771_72895">
<rect width="46" height="46" fill="white"/>
</clipPath>
</defs>
</svg>
