<svg width="13" height="13" viewBox="0 0 13 13" fill="none" xmlns="http://www.w3.org/2000/svg">
<path d="M12.5944 10.5563L8.35171 6.31371L12.5944 2.07107C12.7819 1.88353 12.8872 1.62918 12.8872 1.36396C12.8872 1.09874 12.7819 0.844391 12.5944 0.656855C12.4068 0.469318 12.1525 0.363962 11.8872 0.363962C11.622 0.363962 11.3677 0.469318 11.1801 0.656855L6.9375 4.8995L2.69486 0.656854C2.50732 0.469318 2.25297 0.363961 1.98775 0.363961C1.72254 0.363961 1.46818 0.469318 1.28065 0.656854C1.09311 0.844391 0.987752 1.09874 0.987752 1.36396C0.987752 1.62918 1.09311 1.88353 1.28065 2.07107L5.52329 6.31371L1.28064 10.5563C1.09311 10.7439 0.987751 10.9982 0.987751 11.2635C0.987751 11.5287 1.09311 11.783 1.28064 11.9706C1.46818 12.1581 1.72253 12.2635 1.98775 12.2635C2.25297 12.2635 2.50732 12.1581 2.69486 11.9706L6.9375 7.72792L11.1801 11.9706C11.3677 12.1581 11.622 12.2635 11.8872 12.2635C12.1525 12.2635 12.4068 12.1581 12.5944 11.9706C12.7819 11.783 12.8872 11.5287 12.8872 11.2635C12.8872 10.9982 12.7819 10.7439 12.5944 10.5563Z" fill="#BFBFBF"/>
</svg>
