<svg width="24" height="24" viewBox="0 0 24 24" fill="none" xmlns="http://www.w3.org/2000/svg">
<path d="M3.10355 11.5325C3.10355 11.5325 11.0645 8.23976 13.8255 7.08029C14.8839 6.61654 18.4733 5.13241 18.4733 5.13241C18.4733 5.13241 20.1299 4.48316 19.9918 6.05997C19.9458 6.70929 19.5777 8.98175 19.2095 11.4398C18.6573 14.9181 18.0591 18.7211 18.0591 18.7211C18.0591 18.7211 17.9671 19.7878 17.1848 19.9733C16.4025 20.1588 15.114 19.324 14.8839 19.1385C14.6998 18.9994 11.4326 16.9123 10.2362 15.892C9.91406 15.6138 9.54595 15.0573 10.2822 14.408C11.9388 12.8775 13.9175 10.976 15.114 9.77022C15.6662 9.21366 16.2184 7.9151 13.9175 9.49191C10.6504 11.7644 7.42916 13.8978 7.42916 13.8978C7.42916 13.8978 6.69286 14.3616 5.31237 13.9442C3.93181 13.5268 2.32121 12.9703 2.32121 12.9703C2.32121 12.9703 1.21686 12.2746 3.10355 11.5325Z" fill="#36A9E7"/>
</svg>
