<svg width="59" height="59" viewBox="0 0 59 59" fill="none" xmlns="http://www.w3.org/2000/svg">
<path fill-rule="evenodd" clip-rule="evenodd" d="M29.5 55.46C43.8373 55.46 55.46 43.8373 55.46 29.5C55.46 15.1627 43.8373 3.54 29.5 3.54C15.1627 3.54 3.54 15.1627 3.54 29.5C3.54 43.8373 15.1627 55.46 29.5 55.46ZM29.5 59C45.7924 59 59 45.7924 59 29.5C59 13.2076 45.7924 0 29.5 0C13.2076 0 0 13.2076 0 29.5C0 45.7924 13.2076 59 29.5 59Z" fill="#3DB845"/>
<path fill-rule="evenodd" clip-rule="evenodd" d="M40.6796 22.271C41.3459 22.9627 41.3459 24.0575 40.6796 24.7492L26.0199 39.9678L18.9592 32.6378C18.2929 31.9461 18.2929 30.8513 18.9592 30.1596C19.6617 29.4303 20.8294 29.4303 21.5319 30.1596L26.0199 34.8188L38.1068 22.271C38.8094 21.5417 39.977 21.5417 40.6796 22.271Z" fill="#3DB845"/>
</svg>
