<svg width="22" height="13" viewBox="0 0 22 13" fill="none" xmlns="http://www.w3.org/2000/svg">
<path d="M0.617327 12.3948C1.00835 12.7824 1.53729 13 2.08864 13C2.63999 13 3.16893 12.7824 3.55995 12.3948L11.0522 5.0276L18.4401 12.3948C18.8311 12.7824 19.36 13 19.9114 13C20.4627 13 20.9917 12.7824 21.3827 12.3948C21.5783 12.2014 21.7335 11.9712 21.8395 11.7176C21.9455 11.464 22 11.1919 22 10.9172C22 10.6425 21.9455 10.3705 21.8395 10.1169C21.7335 9.86325 21.5783 9.63308 21.3827 9.43961L12.5339 0.615596C12.3399 0.420534 12.1091 0.26571 11.8548 0.160053C11.6005 0.0543975 11.3277 -9.74345e-07 11.0522 -9.5026e-07C10.7767 -9.26174e-07 10.5039 0.0543976 10.2496 0.160053C9.99526 0.26571 9.76444 0.420534 9.57043 0.615596L0.617326 9.43961C0.421716 9.63308 0.266458 9.86326 0.160507 10.1169C0.0545538 10.3705 1.70125e-06 10.6425 1.72527e-06 10.9172C1.74928e-06 11.192 0.0545539 11.464 0.160507 11.7176C0.266458 11.9712 0.421717 12.2014 0.617327 12.3948Z" fill="#3DB845"/>
</svg>
