<svg width="46" height="46" viewBox="0 0 46 46" fill="none" xmlns="http://www.w3.org/2000/svg">
<path fill-rule="evenodd" clip-rule="evenodd" d="M16.4286 27.0524H16.1H13.1429H9.52857H6.57143H5.47619C4.08496 27.0524 2.95714 28.1802 2.95714 29.5714V40.5238C2.95714 41.915 4.08496 43.0429 5.47619 43.0429H16.4286C17.8198 43.0429 18.9476 41.915 18.9476 40.5238V39.4286V36.4714V32.8571V29.9V29.5714C18.9476 28.1802 17.8198 27.0524 16.4286 27.0524ZM5.47619 24.0952C2.45177 24.0952 0 26.547 0 29.5714V40.5238C0 43.5482 2.45177 46 5.47619 46H16.4286C19.453 46 21.9048 43.5482 21.9048 40.5238V29.5714C21.9048 26.547 19.453 24.0952 16.4286 24.0952H16.1H13.1429H5.47619Z" fill="#FF9966"/>
<path d="M33.9524 29.9V32.8571H40.5238C43.5482 32.8571 46 30.4054 46 27.381V5.47619C46 2.45177 43.5482 0 40.5238 0H18.619C15.5946 0 13.1429 2.45177 13.1429 5.47619V12.0476H16.1V5.47619C16.1 4.08496 17.2278 2.95714 18.619 2.95714H40.5238C41.915 2.95714 43.0429 4.08496 43.0429 5.47619V27.381C43.0429 28.7722 41.915 29.9 40.5238 29.9H33.9524Z" fill="#FF9966"/>
<path fill-rule="evenodd" clip-rule="evenodd" d="M12.0476 15.0048H28.4762C29.8674 15.0048 30.9952 16.1326 30.9952 17.5238V33.9524C30.9952 35.3436 29.8674 36.4714 28.4762 36.4714H18.9476V39.4286H28.4762C31.5006 39.4286 33.9524 36.9768 33.9524 33.9524V32.8571V29.9V17.5238C33.9524 14.4994 31.5006 12.0476 28.4762 12.0476H16.1H13.1429H12.0476C9.0232 12.0476 6.57143 14.4994 6.57143 17.5238V27.0524H9.52857V17.5238C9.52857 16.1326 10.6564 15.0048 12.0476 15.0048Z" fill="#FF9966"/>
</svg>
