<svg width="24" height="24" viewBox="0 0 24 24" fill="none" xmlns="http://www.w3.org/2000/svg">
<path d="M4.84585 11.068H8.2221C9.79068 11.068 11.068 9.79068 11.068 8.2221V4.84585C11.068 3.27727 9.79068 2 8.2221 2H4.84585C3.27727 2 2 3.27727 2 4.84585V8.2221C2 9.79068 3.27701 11.068 4.84585 11.068ZM3.50136 4.84219C3.50136 4.09891 4.10627 3.49769 4.84585 3.49769H8.2221C8.96538 3.49769 9.5666 4.1026 9.5666 4.84219V8.21843C9.5666 8.96171 8.96169 9.56293 8.2221 9.56293H4.84585C4.10258 9.56293 3.50136 8.95802 3.50136 8.21843V4.84219Z" fill="#3DB845"/>
<path d="M4.84585 22.0001H8.2221C9.79068 22.0001 11.068 20.7228 11.068 19.1542V15.778C11.068 14.2094 9.79068 12.9321 8.2221 12.9321H4.84585C3.27727 12.9321 2 14.2094 2 15.778V19.1542C2 20.7228 3.27701 22.0001 4.84585 22.0001ZM3.50136 15.778C3.50136 15.0347 4.10627 14.4335 4.84585 14.4335H8.2221C8.96538 14.4335 9.5666 15.0384 9.5666 15.778V19.1542C9.5666 19.8975 8.96169 20.4987 8.2221 20.4987H4.84585C4.10258 20.4987 3.50136 19.8938 3.50136 19.1542V15.778Z" fill="#3DB845"/>
<path d="M15.7516 11.068H19.1279C20.6964 11.068 21.9737 9.79068 21.9737 8.2221V4.84585C21.9737 3.27727 20.6964 2 19.1279 2H15.7516C14.183 2 12.9058 3.27727 12.9058 4.84585V8.2221C12.9058 9.79068 14.183 11.068 15.7516 11.068ZM14.4071 4.84219C14.4071 4.09891 15.012 3.49769 15.7516 3.49769H19.1279C19.8711 3.49769 20.4724 4.1026 20.4724 4.84219V8.21843C20.4724 8.96171 19.8674 9.56293 19.1279 9.56293H15.7516C15.0083 9.56293 14.4071 8.95802 14.4071 8.21843V4.84219Z" fill="#3DB845"/>
<path d="M15.7516 22.0001H19.1279C20.6964 22.0001 21.9737 20.7228 21.9737 19.1542V15.778C21.9737 14.2094 20.6964 12.9321 19.1279 12.9321H15.7516C14.183 12.9321 12.9058 14.2094 12.9058 15.778V19.1542C12.9058 20.7228 14.183 22.0001 15.7516 22.0001ZM14.4071 15.778C14.4071 15.0347 15.012 14.4335 15.7516 14.4335H19.1279C19.8711 14.4335 20.4724 15.0384 20.4724 15.778V19.1542C20.4724 19.8975 19.8674 20.4987 19.1279 20.4987H15.7516C15.0083 20.4987 14.4071 19.8938 14.4071 19.1542V15.778Z" fill="#3DB845"/>
</svg>
