<svg width="24" height="24" viewBox="0 0 24 24" fill="none" xmlns="http://www.w3.org/2000/svg">
<path d="M4.84585 11.068H19.2221C20.7907 11.068 22.068 9.79068 22.068 8.2221V4.84585C22.068 3.27727 20.7907 2 19.2221 2H4.84585C3.27727 2 2 3.27727 2 4.84585V8.2221C2 9.79068 3.27701 11.068 4.84585 11.068ZM3.50136 4.84219C3.50136 4.09891 4.10627 3.49769 4.84585 3.49769H19.2221C19.9654 3.49769 20.5666 4.1026 20.5666 4.84219V8.21843C20.5666 8.96171 19.9617 9.56293 19.2221 9.56293H4.84585C4.10258 9.56293 3.50136 8.95802 3.50136 8.21843V4.84219Z" fill="#C4C4C4"/>
<path d="M4.84585 22.0001H19.2221C20.7907 22.0001 22.068 20.7228 22.068 19.1542V15.778C22.068 14.2094 20.7907 12.9321 19.2221 12.9321H4.84585C3.27727 12.9321 2 14.2094 2 15.778V19.1542C2 20.7228 3.27701 22.0001 4.84585 22.0001ZM3.50136 15.778C3.50136 15.0347 4.10627 14.4335 4.84585 14.4335H19.2221C19.9654 14.4335 20.5666 15.0384 20.5666 15.778V19.1542C20.5666 19.8975 19.9617 20.4987 19.2221 20.4987H4.84585C4.10258 20.4987 3.50136 19.8938 3.50136 19.1542V15.778Z" fill="#C4C4C4"/>
</svg>
