<svg width="22" height="13" viewBox="0 0 22 13" fill="none" xmlns="http://www.w3.org/2000/svg">
<path fill-rule="evenodd" clip-rule="evenodd" d="M11.9822 12.4403C11.9822 12.4403 12.3761 12.3994 12.5778 12.1969C12.7625 12.0113 12.7561 11.661 12.7561 11.661C12.7561 11.661 12.7315 10.0255 13.5438 9.78402C14.3444 9.54652 15.3723 11.3656 16.4632 12.0651C17.2872 12.594 17.9127 12.4783 17.9127 12.4783L20.8278 12.4403C20.8278 12.4403 22.352 12.3525 21.6294 11.2319C21.5696 11.1401 21.2078 10.4027 19.4626 8.88793C17.6341 7.30232 17.8796 7.55877 20.0806 4.81563C21.4212 3.14521 21.9571 2.12538 21.7895 1.68932C21.6305 1.27221 20.6442 1.38297 20.6442 1.38297L17.363 1.40193C17.363 1.40193 17.1196 1.371 16.9392 1.47178C16.7631 1.57057 16.6489 1.80108 16.6489 1.80108C16.6489 1.80108 16.1301 3.09332 15.4374 4.19297C13.9761 6.51201 13.3922 6.63475 13.1531 6.49105C12.597 6.15477 12.7358 5.14194 12.7358 4.42248C12.7358 2.17428 13.1008 1.23728 12.026 0.994801C11.6694 0.913974 11.4069 0.861087 10.4942 0.852106C9.32329 0.84113 8.33274 0.856098 7.77128 1.11255C7.39769 1.28318 7.10949 1.66437 7.28561 1.68632C7.50229 1.71327 7.9933 1.81006 8.25375 2.14135C8.58998 2.56944 8.57824 3.52938 8.57824 3.52938C8.57824 3.52938 8.77144 6.17573 8.12673 6.50403C7.68482 6.72954 7.07853 6.26953 5.77523 4.16503C5.10811 3.08733 4.60429 1.89588 4.60429 1.89588C4.60429 1.89588 4.50716 1.67335 4.33317 1.55361C4.12289 1.40892 3.82936 1.36401 3.82936 1.36401L0.711466 1.38297C0.711466 1.38297 0.242875 1.39495 0.0710233 1.58554C-0.0816155 1.75418 0.0592819 2.10443 0.0592819 2.10443C0.0592819 2.10443 2.50044 7.44402 5.26501 10.1353C7.8001 12.602 10.6778 12.4403 10.6778 12.4403H11.9822Z" fill="#4585ED"/>
</svg>
