<svg width="42" height="42" viewBox="0 0 42 42" fill="none" xmlns="http://www.w3.org/2000/svg">
<path d="M26.7955 41.5558C25.5392 41.4948 24.2984 41.2523 23.1115 40.8358C22.2398 40.5248 21.3329 40.3233 20.4115 40.2358C19.5309 40.2817 18.6579 40.4225 17.8075 40.6558C16.0315 41.0878 14.0035 41.5798 12.1075 40.7278C10.2115 39.8758 9.23953 38.0398 8.39953 36.4198C8.0252 35.6208 7.55364 34.8711 6.99553 34.1878C6.33568 33.5529 5.59776 33.0045 4.79953 32.5558C3.26353 31.6078 1.53553 30.5278 0.827533 28.6678C0.119533 26.8078 0.647533 24.8398 1.19953 23.1238C1.49932 22.2426 1.68877 21.3276 1.76353 20.3998C1.73045 19.5179 1.5894 18.6434 1.34353 17.7958C0.911533 16.0198 0.419533 14.0038 1.27153 12.0958C2.25104 10.4144 3.76876 9.11227 5.57953 8.39977C6.37912 8.02169 7.12882 7.54607 7.81153 6.98377C8.44256 6.32505 8.99064 5.5916 9.44353 4.79977C10.3915 3.20377 11.4715 1.47577 13.3435 0.767772C15.2155 0.0597724 17.1595 0.647772 18.8875 1.19977C19.7589 1.51192 20.666 1.7135 21.5875 1.79977C22.4692 1.75613 23.343 1.61117 24.1915 1.36777C25.9675 0.947772 27.9955 0.455772 29.8915 1.30777C31.5713 2.27608 32.8771 3.78053 33.5995 5.57977C33.9739 6.37873 34.4454 7.12841 35.0035 7.81177C35.6782 8.45 36.4325 8.99852 37.2475 9.44377C38.7835 10.3918 40.5115 11.4718 41.2195 13.3318C41.9275 15.1918 41.3395 17.1598 40.8235 18.8878C40.5126 19.7595 40.3111 20.6664 40.2235 21.5878C40.2566 22.4697 40.3977 23.3442 40.6435 24.1918C41.0755 25.9678 41.5675 27.9838 40.7155 29.8918C39.8635 31.7878 38.0275 32.7598 36.4075 33.6118C35.6065 33.9891 34.8532 34.4604 34.1635 35.0158C33.5336 35.6945 32.9895 36.4482 32.5435 37.2598C31.5955 38.7958 30.5155 40.5238 28.6555 41.2318C28.0609 41.4538 27.4302 41.5636 26.7955 41.5558ZM20.3035 37.1998H20.4955C21.682 37.2866 22.852 37.5287 23.9755 37.9198C25.1113 38.4283 26.3706 38.595 27.5995 38.3998C28.5115 38.0638 29.2315 36.8878 29.9995 35.6518C30.5845 34.6178 31.2982 33.6622 32.1235 32.8078C33.0041 32.0635 33.9759 31.4344 35.0155 30.9358C36.218 30.4869 37.2558 29.6835 37.9915 28.6318C38.2915 27.3833 38.2036 26.073 37.7395 24.8758C37.4143 23.7799 37.2328 22.6464 37.1995 21.5038C37.2864 20.3173 37.5285 19.1473 37.9195 18.0238C38.428 16.888 38.5948 15.6288 38.3995 14.3998C38.0515 13.4878 36.8875 12.7678 35.6515 11.9998C34.6176 11.4148 33.6619 10.7011 32.8075 9.87577C32.0716 8.99385 31.4507 8.02209 30.9595 6.98377C30.5067 5.78351 29.7041 4.74679 28.6555 4.00777C27.4079 3.70851 26.099 3.79215 24.8995 4.24777C23.7997 4.59297 22.6561 4.77886 21.5035 4.79977C20.3076 4.70119 19.1297 4.44704 17.9995 4.04377C16.8683 3.54878 15.6172 3.39448 14.3995 3.59977C13.4875 3.94777 12.7675 5.11177 11.9995 6.34777C11.4129 7.37333 10.6993 8.3208 9.87553 9.16777C8.99496 9.91208 8.02314 10.5411 6.98353 11.0398C5.78328 11.4926 4.74655 12.2952 4.00753 13.3438C3.70827 14.5914 3.79191 15.9003 4.24753 17.0998C4.58609 18.2012 4.77183 19.3438 4.79953 20.4958C4.70095 21.6917 4.4468 22.8696 4.04353 23.9998C3.54854 25.131 3.39424 26.3821 3.59953 27.5998C3.94753 28.5118 5.11153 29.2318 6.34753 29.9998C7.3815 30.5847 8.33713 31.2984 9.19153 32.1238C9.92743 33.0057 10.5484 33.9775 11.0395 35.0158C11.4923 36.216 12.295 37.2528 13.3435 37.9918C14.5925 38.2857 15.901 38.1979 17.0995 37.7398C18.1426 37.4345 19.218 37.2532 20.3035 37.1998Z" fill="#FF9966"/>
<path d="M18.7198 26.7242C18.5266 26.7265 18.335 26.6906 18.1558 26.6185C17.9766 26.5464 17.8135 26.4396 17.6758 26.3042L13.3558 22.0682C13.2155 21.9311 13.1036 21.7677 13.0265 21.5874C12.9494 21.4071 12.9086 21.2133 12.9063 21.0172C12.9041 20.8211 12.9405 20.6264 13.0135 20.4444C13.0865 20.2623 13.1947 20.0965 13.3318 19.9562C13.4689 19.816 13.6322 19.7041 13.8126 19.627C13.9929 19.5499 14.1867 19.509 14.3828 19.5068C14.5789 19.5046 14.7735 19.541 14.9556 19.614C15.1376 19.687 15.3035 19.7951 15.4438 19.9322L18.7318 23.1482L26.5678 15.6842C26.708 15.537 26.8766 15.4199 27.0635 15.3398C27.2503 15.2598 27.4515 15.2186 27.6548 15.2188C27.858 15.2189 28.0592 15.2603 28.2459 15.3405C28.4327 15.4208 28.6012 15.5381 28.7413 15.6855C28.8813 15.8328 28.9899 16.0071 29.0605 16.1977C29.1311 16.3883 29.1622 16.5913 29.152 16.7943C29.1418 16.9973 29.0904 17.1961 29.0009 17.3787C28.9115 17.5612 28.7859 17.7237 28.6318 17.8562L19.7518 26.2562C19.619 26.3984 19.4596 26.5129 19.2825 26.5932C19.1054 26.6735 18.9141 26.718 18.7198 26.7242Z" fill="#FF9966"/>
</svg>
