<svg width="22" height="16" viewBox="0 0 22 16" fill="none" xmlns="http://www.w3.org/2000/svg">
<path d="M21.3422 3.03109C21.217 2.56847 20.9728 2.14672 20.634 1.80784C20.2951 1.46895 19.8733 1.22476 19.4107 1.09958C17.7171 0.637695 10.9009 0.637695 10.9009 0.637695C10.9009 0.637695 4.08462 0.651692 2.39105 1.11357C1.92843 1.23876 1.50668 1.48295 1.1678 1.82183C0.828913 2.16072 0.584721 2.58247 0.459539 3.04508C-0.0527305 6.05432 -0.25148 10.6395 0.473535 13.5284C0.598718 13.991 0.84291 14.4128 1.18179 14.7517C1.52068 15.0905 1.94243 15.3347 2.40504 15.4599C4.09861 15.9218 10.9149 15.9218 10.9149 15.9218C10.9149 15.9218 17.7311 15.9218 19.4247 15.4599C19.8873 15.3347 20.3091 15.0905 20.648 14.7517C20.9868 14.4128 21.231 13.991 21.3562 13.5284C21.8965 10.515 22.063 5.93255 21.3422 3.03109Z" fill="#EA3323"/>
<path d="M8.73145 11.5542L14.386 8.27907L8.73145 5.00391V11.5542Z" fill="white"/>
</svg>
