<svg width="18" height="18" viewBox="0 0 18 18" fill="none" xmlns="http://www.w3.org/2000/svg">
<path fill-rule="evenodd" clip-rule="evenodd" d="M4.21017 1.0435C3.26032 1.15486 2.58696 1.33941 1.95323 1.66209C0.596677 2.35285 0.170883 3.58167 0.065168 7.11136L0 9.28552L0.439122 9.28529C1.41235 9.28461 3.96554 9.04269 4.63326 8.88784C6.44373 8.46804 7.57113 7.34188 7.99026 5.53479C8.1416 4.88221 8.38545 2.28362 8.38805 1.2948L8.38906 0.927734L6.66668 0.94253C5.71932 0.950775 4.61395 0.996178 4.21017 1.0435ZM8.61596 1.2948C8.61856 2.28362 8.86241 4.88221 9.01375 5.53479C9.43288 7.34188 10.5603 8.46804 12.3708 8.88784C13.0385 9.04269 15.5917 9.28461 16.5649 9.28529L17.004 9.28552L16.9388 7.11136C16.8684 4.75673 16.7093 3.77683 16.2512 2.87261C15.5301 1.44976 13.9066 0.930897 10.1679 0.928638L8.61495 0.927734L8.61596 1.2948ZM0.065168 11.6856C0.135419 14.0312 0.29512 15.0227 0.745536 15.9075C1.07251 16.55 1.37587 16.8498 2.03252 17.1792C2.90873 17.619 3.82741 17.7651 6.15844 17.835L8.38906 17.9018L8.38805 17.5185C8.38545 16.5258 8.14352 13.923 7.99365 13.277C7.57226 11.46 6.44882 10.3301 4.64828 9.91258C3.96848 9.75491 1.42127 9.51231 0.439122 9.51163L0 9.5114L0.065168 11.6856ZM14.3539 9.63609C12.1195 9.8081 10.9452 10.227 10.0869 11.1581C9.52945 11.7629 9.22111 12.3683 9.01262 13.2672C8.85766 13.9352 8.61585 16.4882 8.61517 17.462L8.61495 17.9018L10.8456 17.835C13.1766 17.7651 14.0953 17.619 14.9715 17.1792C15.6281 16.8498 15.9315 16.55 16.2585 15.9075C16.7089 15.0227 16.8686 14.0312 16.9388 11.6856L17.004 9.5114L16.2825 9.52733C15.8857 9.53602 15.0178 9.58504 14.3539 9.63609Z" fill="#1C1E28"/>
</svg>
